<svg width="47" height="73" viewBox="0 0 47 73" fill="none" xmlns="http://www.w3.org/2000/svg">
<g filter="url(#filter0_d_805_619)">
<path d="M30.5357 4.94941C30.1025 5.58573 28.701 6.87208 26.1389 6.28752C23.955 5.78972 23.6236 3.83204 23.8919 3.31445L30.5357 4.94941Z" fill="#EBEBEB"/>
<path opacity="0.5" d="M30.5357 4.94941C30.1025 5.58573 28.701 6.87208 26.1389 6.28752C23.955 5.78972 23.6236 3.83204 23.8919 3.31445L30.5357 4.94941Z" fill="#E67809"/>
<path d="M30.6109 4.5763C31.1799 4.0983 30.2084 2.70234 27.934 2.12843C25.6596 1.55453 24.111 2.41767 24.2871 2.95048C24.1725 2.9908 24.0718 3.05995 23.996 3.1504C23.9202 3.24085 23.8722 3.34914 23.8572 3.4635C23.8054 3.86386 24.4941 4.96906 26.9592 5.54449C29.3047 6.09252 30.3538 5.19131 30.5397 4.94927C30.5793 4.89551 30.606 4.8344 30.6183 4.77006C30.6306 4.70572 30.6281 4.63964 30.6109 4.5763Z" fill="#E67809"/>
<path opacity="0.3" d="M30.6108 4.57637C30.0418 4.70576 29.4793 4.55353 28.9588 4.39369C28.7016 4.30725 28.4506 4.20556 28.2071 4.08923C27.4748 3.73149 26.8541 3.23978 26.0313 2.9749C25.4709 2.77621 24.8549 2.76546 24.2871 2.94446C24.8437 2.86414 25.4131 2.93764 25.9262 3.15606C26.6828 3.46052 27.3051 3.96592 28.0568 4.30083C28.3183 4.41158 28.5885 4.50319 28.865 4.57485C29.4114 4.70424 30.0612 4.80624 30.606 4.57485L30.6108 4.57637Z" fill="black"/>
<path opacity="0.7" d="M30.4115 3.72098C30.2921 3.51145 30.1364 3.32213 29.9508 3.16077C29.5146 2.77988 28.9995 2.48808 28.4378 2.30371L28.1145 2.20476L27.7023 2.10734C27.5811 2.08602 27.4049 2.05862 27.282 2.03883C27.1107 2.02057 26.9393 2.00534 26.768 1.99316H26.422C26.1941 1.99316 25.9629 2.01143 25.7334 2.0297C26.0567 2.06167 26.4139 2.09364 26.7372 2.13778C27.2747 2.21392 27.8035 2.33726 28.3166 2.50618C29.1032 2.75585 29.8183 3.17254 30.4067 3.72403L30.4115 3.72098Z" fill="white"/>
<path opacity="0.7" d="M30.2752 4.72862C29.3202 4.82467 28.3605 4.59158 27.574 4.0725C26.8078 3.61581 25.9575 3.0145 24.9375 3.01907C25.4043 3.10625 25.8491 3.27621 26.2485 3.51991C26.6461 3.74521 27.0195 3.99943 27.4156 4.24148C27.6678 4.40494 27.9389 4.5408 28.2238 4.64641C28.8863 4.87034 29.6051 4.90111 30.2865 4.73471L30.2752 4.72862Z" fill="white"/>
<path d="M11.5244 40.3263C12.2599 40.6307 14.1835 40.9657 15.9698 39.1389C17.4941 37.5831 16.6164 35.7822 16.0862 35.4854L11.5244 40.3263Z" fill="#EBEBEB"/>
<path opacity="0.1" d="M11.5244 40.3263C12.2599 40.6307 14.1835 40.9657 15.9698 39.1389C17.4941 37.5831 16.6164 35.7822 16.0862 35.4854L11.5244 40.3263Z" fill="black"/>
<path d="M11.2488 40.046C10.4939 39.9456 10.4777 38.2756 12.0312 36.6102C13.5846 34.9448 15.3805 34.8519 15.5487 35.3923C15.6685 35.3656 15.7938 35.3703 15.9109 35.406C16.0281 35.4417 16.1326 35.507 16.213 35.5948C16.4927 35.8993 16.5719 37.1795 14.86 38.9439C13.2338 40.6184 11.8243 40.4281 11.5317 40.314C11.4666 40.2914 11.4076 40.2558 11.3587 40.2095C11.3099 40.1632 11.2723 40.1074 11.2488 40.046Z" fill="#EBEBEB"/>
<path opacity="0.3" d="M11.247 40.0462C11.7966 39.856 12.1765 39.4373 12.5127 39.0293C12.6766 38.8253 12.8267 38.6118 12.9621 38.39C13.3598 37.7095 13.5877 36.9742 14.1147 36.3242C14.4631 35.8655 14.969 35.5343 15.5469 35.3865C15.0366 35.6109 14.6065 35.97 14.3087 36.4201C13.8593 37.0686 13.6394 37.8145 13.2111 38.4859C13.0585 38.7161 12.8866 38.9345 12.697 39.139C12.3188 39.5332 11.8387 39.958 11.2422 40.0523L11.247 40.0462Z" fill="black"/>
<path opacity="0.7" d="M10.9038 39.2395C10.8799 39.0024 10.8979 38.7632 10.9571 38.5316C11.0945 37.9869 11.351 37.4751 11.7104 37.0291L11.9173 36.7794C12.0095 36.6805 12.1064 36.5815 12.2018 36.4841C12.2972 36.3867 12.42 36.2862 12.5122 36.2055C12.6415 36.102 12.7773 36 12.9115 35.9011L13.1943 35.7153C13.3864 35.5956 13.585 35.4854 13.7892 35.385C13.5387 35.5814 13.2606 35.793 13.0181 35.9939C12.6161 36.3384 12.2492 36.7176 11.9222 37.1265C11.4161 37.7468 11.0677 38.4681 10.9038 39.2349V39.2395Z" fill="white"/>
<path opacity="0.7" d="M11.6162 40.011C12.4698 39.5891 13.1315 38.8896 13.4784 38.0426C13.8454 37.2617 14.1961 36.3194 15.0513 35.7881C14.7135 36.1043 14.443 36.4784 14.2543 36.8902C14.0571 37.286 13.8971 37.6925 13.7112 38.1081C13.5984 38.3764 13.4536 38.6317 13.2796 38.8692C12.8607 39.402 12.281 39.8036 11.6162 40.0216V40.011Z" fill="white"/>
<path d="M33.1152 17.1885C33.7618 17.9223 35.6596 19.2878 38.4109 17.9223C40.7564 16.7577 40.6513 14.1058 40.2213 13.4878L33.1152 17.1885Z" fill="#EBEBEB"/>
<path opacity="0.5" d="M33.1152 17.1885C33.7618 17.9223 35.6596 19.2878 38.4109 17.9223C40.7564 16.7577 40.6513 14.1058 40.2213 13.4878L33.1152 17.1885Z" fill="#E67809"/>
<path d="M32.9401 16.7107C32.1787 16.216 32.6508 14.3344 35.0803 13.0496C37.5099 11.7648 39.7536 12.3569 39.6841 13.0983C39.8347 13.129 39.9729 13.1997 40.0823 13.3019C40.1917 13.4041 40.2678 13.5337 40.3016 13.6753C40.4633 14.1913 39.9508 15.8065 37.3063 17.1355C34.791 18.4035 33.3782 17.4658 33.1147 17.1887C32.9921 17.0572 32.9294 16.8855 32.9401 16.7107Z" fill="#E67809"/>
<path opacity="0.3" d="M32.9404 16.7104C33.6145 16.7485 34.2158 16.4166 34.7606 16.0847C35.0322 15.9123 35.2914 15.7231 35.5365 15.5184C36.2769 14.8775 36.8588 14.0859 37.722 13.5394C38.2846 13.1756 39.0152 12.964 39.6844 13.0934C39.0239 13.1214 38.3916 13.3536 37.8853 13.7541C37.1045 14.3295 36.5258 15.1394 35.758 15.7559C35.4915 15.9614 35.2071 16.1452 34.9077 16.3055C34.3209 16.6099 33.6145 16.89 32.9404 16.7058V16.7104Z" fill="black"/>
<path opacity="0.7" d="M32.7773 15.8614C32.8474 15.5625 32.9657 15.2755 33.1281 15.0104C33.481 14.4186 33.9617 13.9031 34.5393 13.4972L34.8626 13.2841C35.0016 13.2049 35.1439 13.1319 35.2845 13.0497C35.4252 12.9675 35.5949 12.9066 35.7226 12.8487C35.9036 12.7802 36.0863 12.7148 36.269 12.6539L36.6424 12.5549C36.8925 12.4954 37.1462 12.4502 37.4021 12.4194C37.0578 12.5473 36.6796 12.6813 36.3401 12.8244C35.7699 13.07 35.2282 13.3705 34.7236 13.721C33.9112 14.2849 33.2475 15.0172 32.7838 15.8614H32.7773Z" fill="white"/>
<path opacity="0.7" d="M33.3545 16.8446C33.9193 16.7879 34.4665 16.6258 34.9641 16.3678C35.4617 16.1099 35.8998 15.7612 36.2529 15.3421C37.0062 14.5612 37.8176 13.5747 38.975 13.3418C38.4577 13.5737 37.9954 13.9015 37.6156 14.3054C37.2228 14.6951 36.8623 15.1168 36.4759 15.5233C36.2371 15.792 35.9659 16.0336 35.6677 16.2433C34.9941 16.6878 34.1778 16.8987 33.3577 16.8401L33.3545 16.8446Z" fill="white"/>
<path d="M38.6991 29.6946C38.0331 30.2335 36.1968 31.1378 34.0565 29.5911C32.2315 28.2713 32.7342 26.0182 33.1982 25.5479L38.6991 29.6946Z" fill="#EBEBEB"/>
<path opacity="0.5" d="M38.6991 29.6946C38.0331 30.2335 36.1968 31.1378 34.0565 29.5911C32.2315 28.2713 32.7342 26.0182 33.1982 25.5479L38.6991 29.6946Z" fill="#E67809"/>
<path d="M38.9218 29.3169C39.6492 28.9973 39.5393 27.3242 37.6625 25.8902C35.7858 24.4562 33.7748 24.6526 33.7183 25.295C33.5849 25.3011 33.4561 25.3427 33.3468 25.4149C33.2376 25.4871 33.1522 25.587 33.1008 25.703C32.8858 26.1231 33.0684 27.5709 35.1214 29.0764C37.0757 30.5074 38.4303 29.9 38.6987 29.7006C38.8235 29.6051 38.9036 29.4674 38.9218 29.3169Z" fill="#E67809"/>
<path opacity="0.3" d="M38.9248 29.3169C38.3429 29.2544 37.8806 28.8876 37.47 28.5298C37.2657 28.3435 37.0735 28.1458 36.8945 27.9376C36.3627 27.2876 35.9877 26.5295 35.3346 25.948C35.1242 25.7445 34.8733 25.5821 34.5962 25.47C34.3191 25.358 34.0213 25.2985 33.7197 25.2949C34.2799 25.4101 34.784 25.6965 35.1536 26.1094C35.7323 26.7091 36.1024 27.4794 36.6617 28.1142C36.8589 28.3273 37.0752 28.5239 37.3083 28.7018C37.7642 29.0383 38.3251 29.3808 38.9248 29.3108V29.3169Z" fill="black"/>
<path opacity="0.7" d="M39.1943 28.6123C39.1825 28.3472 39.128 28.0855 39.0327 27.8359C38.8228 27.2815 38.4925 26.7745 38.0628 26.3471L37.8219 26.1218C37.7153 26.0335 37.6069 25.9467 37.4986 25.8615C37.3903 25.7762 37.2545 25.697 37.1543 25.6301C37.0099 25.5458 36.8644 25.4651 36.7179 25.388L36.414 25.251C36.2091 25.166 35.9991 25.0923 35.7852 25.0303C36.06 25.1825 36.3622 25.3545 36.6306 25.5235C37.0804 25.8122 37.497 26.1444 37.8737 26.5145C38.4811 27.1086 38.9352 27.8264 39.2008 28.6123H39.1943Z" fill="white"/>
<path opacity="0.7" d="M38.5459 29.3733C38.0723 29.2463 37.6302 29.0319 37.2454 28.7426C36.8605 28.4533 36.5404 28.0949 36.3039 27.6882C35.7801 26.9163 35.2418 25.9603 34.2881 25.6011C34.6944 25.8709 35.0386 26.2152 35.3 26.6134C35.5764 27.0016 35.8173 27.4111 36.084 27.816C36.2475 28.0789 36.4428 28.3231 36.6659 28.5437C37.1724 29.0168 37.8373 29.31 38.5475 29.3733H38.5459Z" fill="white"/>
<path opacity="0.6" d="M22.3012 41.8242C22.3012 41.8242 10.4297 36.6727 10.4297 29.7691C10.4297 22.8654 25.8252 18.4218 25.8252 13.0237C25.8252 7.62561 19.1119 4.45312 19.1119 4.45312C19.1119 4.45312 29.7161 7.86613 29.7161 14.6906C29.7161 21.5151 19.5661 26.1399 18.5962 30.4815C17.2481 36.5144 22.3012 41.8242 22.3012 41.8242Z" fill="#EBEBEB"/>
<path opacity="0.6" d="M21.7133 41.8244C21.7133 41.8244 33.5849 37.7751 33.5849 32.3465C33.5849 26.918 18.1878 23.4243 18.1878 19.1816C18.1878 14.939 24.9027 12.4424 24.9027 12.4424C24.9027 12.4424 14.2969 15.1262 14.2969 20.4923C14.2969 25.8585 25.9583 29.5424 26.7859 33.9069C27.6039 38.1815 21.7133 41.8244 21.7133 41.8244Z" fill="#EBEBEB"/>
<path d="M27.6522 61.3555H16.3594V62.3998H27.6522V61.3555Z" fill="#E67809"/>
<path opacity="0.1" d="M16.3594 61.3555V61.7604L27.6522 62.0451V61.3555H16.3594Z" fill="black"/>
<path d="M40.2324 56.3592C39.4275 57.1466 38.4034 57.7048 37.2773 57.9697C36.1512 58.2346 34.9687 58.1956 33.8651 57.8571C33.5 57.7436 33.1462 57.5999 32.8079 57.4278C32.2984 57.168 31.8194 56.8583 31.3789 56.5038L32.9841 54.8749C33.2185 55.0696 33.4712 55.2439 33.739 55.3956C36.1637 56.7839 38.0275 55.1946 38.401 54.8247C40.1193 53.17 41.2007 49.0004 39.9172 47.166C39.8348 47.032 39.4323 46.7824 37.6541 46.8767C37.3308 46.8981 36.9526 46.9209 36.5226 46.9666C36.189 47.0202 35.8502 47.0386 35.5123 47.0214L35.6109 45.9268L35.6335 44.8232C35.7467 44.8232 35.9277 44.7988 36.1637 44.7714C36.9955 44.6706 37.8342 44.6299 38.6725 44.6496C39.9657 44.7044 41.2848 45.0226 41.988 46.0364C44.0732 49.0278 42.3856 54.2828 40.2324 56.3592Z" fill="#E67809"/>
<g opacity="0.1">
<path d="M40.2324 56.3592C39.4275 57.1466 38.4034 57.7048 37.2773 57.9697C36.1512 58.2346 34.9687 58.1956 33.8651 57.8571C33.5 57.7436 33.1462 57.5999 32.8079 57.4278C32.2984 57.168 31.8194 56.8583 31.3789 56.5038L32.9841 54.8749C33.2185 55.0696 33.4712 55.2439 33.739 55.3956C36.1637 56.7839 38.0275 55.1946 38.401 54.8247C40.1193 53.17 41.2007 49.0004 39.9172 47.166C39.8348 47.032 39.4323 46.7824 37.6541 46.8767C37.3308 46.8981 36.9526 46.9209 36.5226 46.9666C36.189 47.0202 35.8502 47.0386 35.5123 47.0214L35.6109 45.9268L35.6335 44.8232C35.7467 44.8232 35.9277 44.7988 36.1637 44.7714C36.9955 44.6706 37.8342 44.6299 38.6725 44.6496C39.9657 44.7044 41.2848 45.0226 41.988 46.0364C44.0732 49.0278 42.3856 54.2828 40.2324 56.3592Z" fill="black"/>
</g>
<path d="M6.98242 41.3677C6.98242 41.3677 7.90059 48.2926 9.3716 53.1595C10.5128 56.9332 12.3395 60.6187 16.3144 61.3906C17.7693 61.6737 19.8028 61.5976 22.0061 61.5976C24.2094 61.5976 26.2381 61.6737 27.6978 61.3906C31.6727 60.6203 33.501 56.9332 34.6487 53.1595C36.1213 48.2881 37.0379 41.3677 37.0379 41.3677H6.98242Z" fill="#E67809"/>
<path opacity="0.3" d="M18.4718 61.5915C17.7482 61.5819 17.0268 61.5147 16.3154 61.3906C12.3404 60.6203 10.5138 56.9332 9.36443 53.1595C7.8918 48.2881 6.97363 41.3677 6.97363 41.3677H10.4022C10.6091 44.7015 11.8619 59.748 18.4718 61.5915Z" fill="white"/>
<path opacity="0.1" d="M24.3136 61.3449C23.6153 61.4773 22.0068 61.5976 22.0068 61.5976C24.2101 61.5976 26.2372 61.6737 27.6985 61.3906C31.6735 60.6203 33.5017 56.8876 34.6494 53.1138C36.1204 48.2424 37.0386 41.3677 37.0386 41.3677H24.3103C24.3103 41.3677 31.4148 42.7286 32.0517 45.0699C33.0717 48.8285 29.4346 60.366 24.3136 61.3449Z" fill="black"/>
<path d="M34.8977 64.1975H9.1162L4 61.7009H40.0139L34.8977 64.1975Z" fill="#E67809"/>
<path d="M34.8927 64.1975H9.10156V64.9998H34.8927V64.1975Z" fill="#E67809"/>
<path opacity="0.1" d="M9.10156 64.1975V64.5081L34.8927 64.7257V64.1975H9.10156Z" fill="black"/>
<path d="M16.1153 60.3783C15.7079 60.9751 14.3905 62.1853 11.9803 61.6358C9.92737 61.1684 9.61539 59.328 9.86756 58.8408L16.1153 60.3783Z" fill="#E67809"/>
<path opacity="0.8" d="M16.1153 60.3783C15.7079 60.9751 14.3905 62.1853 11.9803 61.6358C9.92737 61.1684 9.61539 59.328 9.86756 58.8408L16.1153 60.3783Z" fill="black"/>
<path d="M16.1828 60.0249C16.7195 59.5682 15.8045 58.2621 13.6675 57.7217C11.5305 57.1813 10.0741 57.9957 10.239 58.495C10.1302 58.5328 10.0346 58.5982 9.96277 58.6839C9.89091 58.7696 9.84552 58.8722 9.8316 58.9806C9.7831 59.3582 10.4297 60.3948 12.7413 60.9368C14.9462 61.4513 15.9387 60.6049 16.1084 60.3781C16.1483 60.3283 16.1756 60.2707 16.1885 60.2095C16.2014 60.1484 16.1994 60.0853 16.1828 60.0249Z" fill="#E67809"/>
<g opacity="0.7">
<path d="M16.1828 60.0249C16.7195 59.5682 15.8045 58.2621 13.6675 57.7217C11.5305 57.1813 10.0741 57.9957 10.239 58.495C10.1302 58.5328 10.0346 58.5982 9.96277 58.6839C9.89091 58.7696 9.84552 58.8722 9.8316 58.9806C9.7831 59.3582 10.4297 60.3948 12.7413 60.9368C14.9462 61.4513 15.9387 60.6049 16.1084 60.3781C16.1483 60.3283 16.1756 60.2707 16.1885 60.2095C16.2014 60.1484 16.1994 60.0853 16.1828 60.0249Z" fill="black"/>
</g>
<path opacity="0.3" d="M16.1831 60.0249C15.648 60.1452 15.1178 60.0021 14.6313 59.8514C14.3898 59.7726 14.1539 59.6796 13.9249 59.5728C13.2362 59.2364 12.6511 58.7736 11.88 58.5239C11.3528 58.3371 10.7735 58.3269 10.2393 58.495C10.7624 58.4197 11.2976 58.489 11.7798 58.6944C12.491 58.9806 13.073 59.4556 13.7842 59.7707C14.0309 59.8754 14.286 59.9614 14.5472 60.028C15.0613 60.1498 15.6788 60.2457 16.1831 60.028V60.0249Z" fill="black"/>
<path opacity="0.1" d="M15.9971 59.2273C15.8854 59.03 15.7389 58.8519 15.5639 58.7006C15.1542 58.3422 14.6698 58.0679 14.1414 57.8953L13.8424 57.8025C13.7147 57.7705 13.5837 57.74 13.4544 57.7111C13.3251 57.6822 13.1747 57.6639 13.0584 57.6457C12.8967 57.6289 12.7351 57.6152 12.5734 57.603H12.2501C12.0351 57.603 11.8169 57.6198 11.6035 57.6365C11.909 57.667 12.2501 57.6974 12.5475 57.7385C13.053 57.811 13.5503 57.9272 14.0331 58.0856C14.7718 58.3198 15.4437 58.7104 15.9971 59.2273Z" fill="#E67809"/>
<path opacity="0.1" d="M15.8694 60.1757C14.9686 60.2672 14.0632 60.0458 13.3235 59.5531C12.6025 59.1222 11.8056 58.5575 10.8438 58.562C11.2827 58.6441 11.7012 58.8038 12.0771 59.0324C12.4505 59.2456 12.8013 59.4891 13.1731 59.7129C13.4093 59.8658 13.6631 59.9929 13.9296 60.092C14.5526 60.303 15.2286 60.3321 15.8694 60.1757Z" fill="#E67809"/>
<path d="M14.126 60.6598C14.653 61.2596 16.2016 62.3724 18.4452 61.2581C20.3592 60.3082 20.2735 58.1465 19.9227 57.6411L14.126 60.6598Z" fill="#E67809"/>
<path opacity="0.8" d="M14.126 60.6598C14.653 61.2596 16.2016 62.3724 18.4452 61.2581C20.3592 60.3082 20.2735 58.1465 19.9227 57.6411L14.126 60.6598Z" fill="black"/>
<path d="M13.9849 60.2701C13.3642 59.8666 13.7489 58.3322 15.7307 57.2833C17.7126 56.2344 19.5424 56.7185 19.4858 57.3229C19.6083 57.3484 19.7206 57.4062 19.8096 57.4895C19.8986 57.5727 19.9606 57.6781 19.9886 57.7933C20.1179 58.2149 19.7041 59.5287 17.5461 60.6156C15.4947 61.6508 14.3422 60.8851 14.1272 60.6598C14.027 60.5527 13.9758 60.4126 13.9849 60.2701Z" fill="#E67809"/>
<g opacity="0.7">
<path d="M13.9849 60.2703C13.3642 59.8669 13.7489 58.3324 15.7307 57.2835C17.7126 56.2347 19.5424 56.7188 19.4858 57.3231C19.6083 57.3487 19.7206 57.4065 19.8096 57.4897C19.8986 57.573 19.9606 57.6783 19.9886 57.7935C20.1179 58.2152 19.7041 59.5289 17.5461 60.6159C15.4947 61.651 14.3422 60.8853 14.1272 60.66C14.027 60.5529 13.9758 60.4128 13.9849 60.2703Z" fill="black"/>
</g>
<path opacity="0.3" d="M13.9843 60.27C14.5339 60.3005 15.0237 60.0295 15.4699 59.7601C15.6907 59.6207 15.9018 59.4681 16.1019 59.3034C16.7049 58.7812 17.1802 58.1342 17.8801 57.6943C18.341 57.3775 18.9166 57.2461 19.4804 57.3289C18.9421 57.3519 18.4268 57.5413 18.0143 57.8678C17.3757 58.3382 16.9037 58.9989 16.2781 59.5013C16.061 59.6688 15.829 59.8185 15.5847 59.9488C15.0997 60.1924 14.5275 60.4268 13.9795 60.2761L13.9843 60.27Z" fill="black"/>
<path opacity="0.1" d="M13.8516 59.5777C13.9081 59.3339 14.004 59.0998 14.1361 58.8835C14.4248 58.4009 14.8174 57.9804 15.2886 57.6489L15.5505 57.4754C15.662 57.4115 15.7784 57.346 15.8932 57.2836C16.008 57.2212 16.147 57.1679 16.2521 57.1207C16.3992 57.0644 16.5479 57.0111 16.6966 56.9609L17.0021 56.8802C17.206 56.8317 17.4127 56.7946 17.6212 56.769C17.34 56.8741 17.0312 56.9837 16.7548 57.1009C16.2887 57.3005 15.8461 57.5454 15.4341 57.8316C14.7714 58.2917 14.2299 58.8891 13.8516 59.5777Z" fill="#E67809"/>
<path opacity="0.1" d="M14.3184 60.3798C14.779 60.3333 15.2253 60.2008 15.631 59.9902C16.0368 59.7795 16.394 59.4949 16.6817 59.1529C17.2976 58.5181 17.9587 57.7112 18.9027 57.5225C18.4804 57.7108 18.1031 57.978 17.7938 58.308C17.4705 58.6261 17.1796 58.9702 16.8643 59.3051C16.6684 59.5245 16.446 59.7217 16.2016 59.8927C15.6525 60.2552 14.987 60.4274 14.3184 60.3798Z" fill="#E67809"/>
<path d="M37.9209 60.3463C37.4812 61.0039 36.0975 62.2964 33.718 61.4621C31.6893 60.7528 31.4808 58.5972 31.7588 58.0537L37.9209 60.3463Z" fill="#E67809"/>
<path opacity="0.8" d="M37.9209 60.3463C37.4812 61.0039 36.0975 62.2964 33.718 61.4621C31.6893 60.7528 31.4808 58.5972 31.7588 58.0537L37.9209 60.3463Z" fill="black"/>
<path d="M38.0122 59.9428C38.5715 59.4678 37.9799 57.9927 35.872 57.192C33.7641 56.3913 32.015 57.0931 32.1541 57.6852C32.0361 57.7257 31.9326 57.7968 31.8557 57.8903C31.7787 57.9837 31.7314 58.0958 31.7192 58.2135C31.6497 58.6458 32.2397 59.9002 34.5271 60.7177C36.7029 61.494 37.7423 60.5959 37.9217 60.3462C38.007 60.2282 38.0395 60.0833 38.0122 59.9428Z" fill="#E67809"/>
<g opacity="0.7">
<path d="M38.0122 59.9428C38.5715 59.4678 37.9799 57.9927 35.872 57.192C33.7641 56.3913 32.015 57.0931 32.1541 57.6852C32.0361 57.7257 31.9326 57.7968 31.8557 57.8903C31.7787 57.9837 31.7314 58.0958 31.7192 58.2135C31.6497 58.6458 32.2397 59.9002 34.5271 60.7177C36.7029 61.494 37.7423 60.5959 37.9217 60.3462C38.007 60.2282 38.0395 60.0833 38.0122 59.9428Z" fill="black"/>
</g>
<path opacity="0.3" d="M38.0134 59.9428C37.4719 60.0403 36.9482 59.8302 36.4713 59.6155C36.2321 59.503 36.001 59.3759 35.7795 59.235C35.1102 58.7889 34.5509 58.2059 33.7928 57.8542C33.2923 57.5959 32.7033 57.5351 32.1553 57.6853C32.6929 57.6434 33.2302 57.7691 33.6845 58.043C34.3796 58.4312 34.9389 59.0295 35.6243 59.4527C35.8623 59.593 36.1127 59.7137 36.3727 59.8134C36.8819 59.9961 37.4865 60.1575 38.0102 59.9428H38.0134Z" fill="black"/>
<path opacity="0.1" d="M38.0488 59.2394C37.958 59.0052 37.8305 58.785 37.6706 58.5863C37.3193 58.1419 36.8726 57.7721 36.3596 57.5009L36.0767 57.3609C35.9555 57.3091 35.8326 57.2604 35.7098 57.2086C35.5869 57.1569 35.443 57.1249 35.3331 57.0899C35.1795 57.0518 35.0244 57.0184 34.8692 56.9864L34.5556 56.9422C34.3469 56.9192 34.1369 56.9075 33.9268 56.9072C34.2193 56.9773 34.541 57.0488 34.8304 57.131C35.3199 57.2729 35.7924 57.4627 36.24 57.6973C36.9604 58.0728 37.5793 58.5994 38.0488 59.2364V59.2394Z" fill="#E67809"/>
<path opacity="0.1" d="M37.6913 60.0919C37.2269 60.1024 36.765 60.0256 36.3325 59.8658C35.9 59.7061 35.5058 59.4668 35.1728 59.1618C34.4761 58.6061 33.7099 57.8861 32.748 57.813C33.1925 57.9495 33.6032 58.169 33.9556 58.4584C34.316 58.7355 34.6539 59.0415 35.0128 59.3353C35.2368 59.5288 35.4842 59.6969 35.7499 59.8361C36.3454 60.1308 37.0311 60.2212 37.6897 60.0919H37.6913Z" fill="#E67809"/>
</g>
<defs>
<filter id="filter0_d_805_619" x="0" y="0" width="48" height="73" filterUnits="userSpaceOnUse" color-interpolation-filters="sRGB">
<feFlood flood-opacity="0" result="BackgroundImageFix"/>
<feColorMatrix in="SourceAlpha" type="matrix" values="0 0 0 0 0 0 0 0 0 0 0 0 0 0 0 0 0 0 127 0" result="hardAlpha"/>
<feOffset dy="4"/>
<feGaussianBlur stdDeviation="2"/>
<feComposite in2="hardAlpha" operator="out"/>
<feColorMatrix type="matrix" values="0 0 0 0 0 0 0 0 0 0 0 0 0 0 0 0 0 0 0.25 0"/>
<feBlend mode="normal" in2="BackgroundImageFix" result="effect1_dropShadow_805_619"/>
<feBlend mode="normal" in="SourceGraphic" in2="effect1_dropShadow_805_619" result="shape"/>
</filter>
</defs>
</svg>
