<svg width="115" height="108" viewBox="0 0 115 108" fill="none" xmlns="http://www.w3.org/2000/svg">
<path d="M50.4167 30.375C50.4167 25.0044 48.292 19.8537 44.51 16.0561C40.728 12.2585 35.5985 10.125 30.25 10.125C24.9015 10.125 19.772 12.2585 15.99 16.0561C12.208 19.8537 10.0833 25.0044 10.0833 30.375C10.0833 35.7456 12.208 40.8963 15.99 44.6939C19.772 48.4915 24.9015 50.625 30.25 50.625C35.5985 50.625 40.728 48.4915 44.51 44.6939C48.292 40.8963 50.4167 35.7456 50.4167 30.375ZM59.7437 37.125C56.6977 50.6461 44.6398 60.75 30.25 60.75C13.5495 60.75 0 47.1445 0 30.375C0 13.6055 13.5495 0 30.25 0C44.6398 0 56.6977 10.1039 59.7437 23.625H74.8267C76.6754 21.5578 79.3642 20.25 82.3472 20.25H104.194C109.761 20.25 114.278 24.7852 114.278 30.375C114.278 35.9648 109.761 40.5 104.194 40.5H82.3472C79.3642 40.5 76.6754 39.1922 74.8267 37.125H59.7437ZM30.25 16.875C33.8157 16.875 37.2353 18.2973 39.7567 20.8291C42.278 23.3608 43.6944 26.7946 43.6944 30.375C43.6944 33.9554 42.278 37.3892 39.7567 39.9209C37.2353 42.4527 33.8157 43.875 30.25 43.875C26.6843 43.875 23.2647 42.4527 20.7433 39.9209C18.222 37.3892 16.8056 33.9554 16.8056 30.375C16.8056 26.7946 18.222 23.3608 20.7433 20.8291C23.2647 18.2973 26.6843 16.875 30.25 16.875ZM84.0278 50.625C86.8217 50.625 89.0694 52.882 89.0694 55.6875V57.375H109.236C112.03 57.375 114.278 59.632 114.278 62.4375C114.278 65.243 112.03 67.5 109.236 67.5H58.8194C56.0255 67.5 53.7778 65.243 53.7778 62.4375C53.7778 59.632 56.0255 57.375 58.8194 57.375H78.9861V55.6875C78.9861 52.882 81.2339 50.625 84.0278 50.625ZM60.5 97.875V74.25H107.556V97.875C107.556 103.465 103.039 108 97.4722 108H70.5833C65.0165 108 60.5 103.465 60.5 97.875ZM10.0833 67.5H36.9722C42.5391 67.5 47.0556 72.0352 47.0556 77.625C47.0556 83.2148 42.5391 87.75 36.9722 87.75H33.6111C33.6111 91.4836 30.6071 94.5 26.8889 94.5H13.4444C9.72622 94.5 6.72222 91.4836 6.72222 87.75V70.875C6.72222 69.0187 8.23472 67.5 10.0833 67.5ZM36.9722 81C38.8208 81 40.3333 79.4813 40.3333 77.625C40.3333 75.7687 38.8208 74.25 36.9722 74.25H33.6111V81H36.9722ZM5.04167 97.875H42.0139C44.8078 97.875 47.0556 100.132 47.0556 102.938C47.0556 105.743 44.8078 108 42.0139 108H5.04167C2.24774 108 0 105.743 0 102.938C0 100.132 2.24774 97.875 5.04167 97.875Z" fill="#808080"/>
</svg>
