<svg width="800" height="512" xmlns="http://www.w3.org/2000/svg" xmlns:xlink="http://www.w3.org/1999/xlink" overflow="hidden"><defs><clipPath id="clip0"><rect x="539" y="284" width="800" height="512"/></clipPath><clipPath id="clip1"><rect x="540" y="285" width="798" height="510"/></clipPath><clipPath id="clip2"><rect x="540" y="285" width="798" height="510"/></clipPath><clipPath id="clip3"><rect x="540" y="285" width="798" height="510"/></clipPath></defs><g clip-path="url(#clip0)" transform="translate(-539 -284)"><g clip-path="url(#clip1)"><g clip-path="url(#clip2)"><g clip-path="url(#clip3)"><path d="M-0.436057 304.367 795.222 301.897 795.222 469.924-1.01747 469.924Z" fill="#FEFEFE" fill-rule="evenodd" transform="matrix(1.00221 0 0 1 541.02 285.125)"/><path d="M344.485 59.4491 716.586 59.4491 716.586 290.559 344.485 290.559Z" fill="#FEFEFE" transform="matrix(1.00221 0 0 1 541.02 285.125)"/><path d="M-22484.4 3270.72-22054.9 3270.72-22054.9 3310.25-22484.4 3310.25Z" fill-rule="evenodd" transform="matrix(1.00221 0 0 1 23390.4 -2708.55)"/><path d="M-22464.9 3058.5-22432.5 3058.5-22432.5 3282.92-22464.9 3282.92Z" fill-rule="evenodd" transform="matrix(1.00221 0 0 1 23390.4 -2708.55)"/><path d="M-22291.2 3071.29-22253.9 3071.29-22253.9 3285.83-22291.2 3285.83Z" fill-rule="evenodd" transform="matrix(1.00221 0 0 1 23390.4 -2708.55)"/><path d="M-22098.6 3068.24-22061.7 3068.24-22061.7 3278.13-22098.6 3278.13Z" fill-rule="evenodd" transform="matrix(1.00221 0 0 1 23390.4 -2708.55)"/><path d="M-22500.2 3031.61-22045 3031.61-22045 3076.67-22500.2 3076.67Z" fill-rule="evenodd" transform="matrix(1.00221 0 0 1 23401.3 -2710.03)"/><path d="M-18720 2445.63C-18720 2445.63-18788.6 2445.74-18881.1 2445.95-18930.4 2446.06-18986.3 2446.17-19042.3 2446.39-19074.9 2446.49-19107.7 2446.71-19139 2446.82-19262.2 2447.47-19364.6 2448.12-19364.6 2448.12-19365.4 2448.12-19366 2448.88-19366 2449.86-19366 2450.83-19365.4 2451.59-19364.6 2451.59-19364.6 2451.59-19262.2 2451.37-19139 2451.05-19107.7 2450.94-19075 2450.83-19042.3 2450.72-18986.3 2450.51-18930.4 2450.18-18881.1 2449.86-18788.6 2449.31-18720 2448.88-18720 2448.88-18719.2 2448.88-18718.6 2448.12-18718.6 2447.25-18718.7 2446.39-18719.2 2445.63-18720 2445.63Z" fill-rule="evenodd" transform="matrix(1.21921 0 0 1 24154.4 -1858.34)"/><path d="M-18720.1 2451.59C-18720.1 2451.59-18788.7 2451.7-18881.2 2451.92-18930.5 2452.03-18986.4 2452.13-19042.4 2452.35-19075 2452.46-19107.8 2452.68-19139.1 2452.78-19262.3 2453.44-19364.7 2454.09-19364.7 2454.09-19365.5 2454.09-19366.1 2454.85-19366.1 2455.82-19366.1 2456.8-19365.5 2457.56-19364.7 2457.56-19364.7 2457.56-19262.3 2457.34-19139.1 2457.01-19107.8 2456.91-19075.2 2456.8-19042.4 2456.69-18986.4 2456.47-18930.5 2456.15-18881.2 2455.82-18788.7 2455.28-18720.1 2454.85-18720.1 2454.85-18719.3 2454.85-18718.7 2454.09-18718.7 2453.22-18718.7 2452.35-18719.3 2451.59-18720.1 2451.59Z" fill-rule="evenodd" transform="matrix(1.21921 0 0 1 24153.8 -1826.41)"/><path d="M-18720.1 2458.64C-18720.1 2458.64-18788.7 2458.75-18881.2 2458.97-18930.5 2459.07-18986.4 2459.18-19042.4 2459.4-19075 2459.51-19107.8 2459.73-19139.1 2459.83-19262.3 2460.48-19364.7 2461.14-19364.7 2461.14-19365.5 2461.14-19366.1 2461.89-19366.1 2462.87-19366.1 2463.85-19365.5 2464.61-19364.7 2464.61-19364.7 2464.61-19262.3 2464.39-19139.1 2464.06-19107.8 2463.95-19075.2 2463.85-19042.4 2463.74-18986.4 2463.52-18930.5 2463.2-18881.2 2462.87-18788.7 2462.33-18720.1 2461.89-18720.1 2461.89-18719.3 2461.89-18718.7 2461.14-18718.7 2460.27-18718.8 2459.4-18719.3 2458.64-18720.1 2458.64Z" fill-rule="evenodd" transform="matrix(1.21921 0 0 1 24153.7 -1789.27)"/><path d="M-18720.3 2465.04C-18720.3 2465.04-18789 2465.15-18881.5 2465.36-18930.7 2465.47-18986.7 2465.58-19042.6 2465.8-19075.3 2465.91-19108 2466.12-19139.4 2466.23-19262.6 2466.88-19364.9 2467.53-19364.9 2467.53-19365.7 2467.53-19366.3 2468.29-19366.3 2469.27-19366.3 2470.25-19365.7 2471-19364.9 2471-19364.9 2471-19262.6 2470.79-19139.4 2470.46-19108 2470.35-19075.4 2470.25-19042.6 2470.14-18986.7 2469.92-18930.7 2469.59-18881.5 2469.27-18789 2468.73-18720.3 2468.29-18720.3 2468.29-18719.5 2468.29-18718.9 2467.53-18718.9 2466.67-18718.9 2465.69-18719.5 2464.93-18720.3 2465.04Z" fill-rule="evenodd" transform="matrix(1.21921 0 0 1 24152.8 -1755.34)"/><path d="M-23418.1 3062.16C-23418.1 3062.16-23418.5 3073.89-23418.7 3089.53-23418.9 3097.88-23419.1 3107.46-23419.3 3116.89-23419.4 3122.42-23419.4 3127.95-23419.4 3133.34-23419.6 3154.23-23419.4 3171.76-23419.4 3171.76-23419.4 3172.7-23418.6 3173.37-23417.7 3173.37-23416.7 3173.37-23415.9 3172.7-23415.9 3171.76-23415.9 3171.76-23415.5 3154.37-23415.1 3133.34-23415 3128.08-23414.8 3122.42-23414.8 3116.89-23414.7 3107.32-23414.7 3097.88-23414.7 3089.53-23414.7 3073.75-23414.7 3062.16-23414.7 3062.16-23414.7 3061.35-23415.4 3060.54-23416.3 3060.54-23417.4 3060.68-23418.1 3061.35-23418.1 3062.16Z" fill-rule="evenodd" transform="matrix(1 0 0 1.07826 23998.4 -2709.57)"/><path d="M-23411.1 3062.16C-23411.1 3062.16-23411.3 3073.89-23411.7 3089.53-23411.9 3097.88-23412.1 3107.46-23412.3 3116.89-23412.4 3122.42-23412.4 3127.95-23412.4 3133.34-23412.5 3154.23-23412.4 3171.76-23412.4 3171.76-23412.4 3172.7-23411.6 3173.37-23410.7 3173.37-23409.7 3173.37-23408.9 3172.7-23408.9 3171.76-23408.9 3171.76-23408.5 3154.37-23408.1 3133.34-23408 3128.08-23407.8 3122.42-23407.8 3116.89-23407.7 3107.32-23407.7 3097.88-23407.7 3089.53-23407.7 3073.75-23407.7 3062.16-23407.7 3062.16-23407.7 3061.35-23408.4 3060.54-23409.3 3060.54-23410.3 3060.68-23411.1 3061.35-23411.1 3062.16Z" fill-rule="evenodd" transform="matrix(1 0 0 1.07826 24035.9 -2709.57)"/><path d="M-23404.3 3062.16C-23404.3 3062.16-23404.7 3073.89-23405 3089.53-23405.1 3097.88-23405.4 3107.46-23405.5 3116.89-23405.7 3122.42-23405.7 3127.95-23405.7 3133.34-23405.8 3154.23-23405.7 3171.76-23405.7 3171.76-23405.7 3172.7-23404.9 3173.37-23403.9 3173.37-23403 3173.37-23402.2 3172.7-23402.2 3171.76-23402.2 3171.76-23401.8 3154.37-23401.4 3133.34-23401.2 3128.08-23401.1 3122.42-23401.1 3116.89-23401 3107.32-23401 3097.88-23401 3089.53-23401 3073.75-23401 3062.16-23401 3062.16-23401 3061.35-23401.6 3060.54-23402.6 3060.54-23403.6 3060.68-23404.3 3061.35-23404.3 3062.16Z" fill-rule="evenodd" transform="matrix(1 0 0 1.07826 24071.5 -2709.57)"/><path d="M-23398 3062.16C-23398 3062.16-23398.4 3073.89-23398.7 3089.53-23398.8 3097.88-23399.1 3107.46-23399.2 3116.89-23399.3 3122.42-23399.3 3127.95-23399.3 3133.34-23399.5 3154.23-23399.3 3171.76-23399.3 3171.76-23399.3 3172.7-23398.5 3173.37-23397.6 3173.37-23396.6 3173.37-23395.8 3172.7-23395.8 3171.76-23395.8 3171.76-23395.4 3154.37-23395 3133.34-23394.9 3128.08-23394.8 3122.42-23394.8 3116.89-23394.6 3107.32-23394.6 3097.88-23394.6 3089.53-23394.6 3073.75-23394.6 3062.16-23394.6 3062.16-23394.6 3061.35-23395.3 3060.54-23396.2 3060.54-23397.2 3060.68-23398 3061.35-23398 3062.16Z" fill-rule="evenodd" transform="matrix(1 0 0 1.07826 24105.4 -2709.57)"/><path d="M-23391.5 3062.16C-23391.5 3062.16-23391.8 3073.89-23392.2 3089.53-23392.3 3097.88-23392.6 3107.46-23392.7 3116.89-23392.9 3122.42-23392.9 3127.95-23392.9 3133.34-23393 3154.23-23392.9 3171.76-23392.9 3171.76-23392.9 3172.7-23392.1 3173.37-23391.1 3173.37-23390.2 3173.37-23389.4 3172.7-23389.4 3171.76-23389.4 3171.76-23389 3154.37-23388.5 3133.34-23388.4 3128.08-23388.3 3122.42-23388.3 3116.89-23388.1 3107.32-23388.1 3097.88-23388.1 3089.53-23388.1 3073.75-23388.1 3062.16-23388.1 3062.16-23388.1 3061.35-23388.8 3060.54-23389.8 3060.54-23390.7 3060.68-23391.4 3061.35-23391.5 3062.16Z" fill-rule="evenodd" transform="matrix(1 0 0 1.07826 24139.9 -2709.57)"/><path d="M-23385.3 3062.16C-23385.3 3062.16-23385.6 3073.89-23386 3089.53-23386.1 3097.88-23386.4 3107.46-23386.5 3116.89-23386.7 3122.42-23386.7 3127.95-23386.7 3133.34-23386.8 3154.23-23386.7 3171.76-23386.7 3171.76-23386.7 3172.7-23385.9 3173.37-23384.9 3173.37-23384 3173.37-23383.2 3172.7-23383.2 3171.76-23383.2 3171.76-23382.8 3154.37-23382.3 3133.34-23382.2 3128.08-23382.1 3122.42-23382.1 3116.89-23381.9 3107.32-23381.9 3097.88-23381.9 3089.53-23381.9 3073.75-23381.9 3062.16-23381.9 3062.16-23381.9 3061.35-23382.6 3060.54-23383.6 3060.54-23384.5 3060.68-23385.3 3061.35-23385.3 3062.16Z" fill-rule="evenodd" transform="matrix(1 0 0 1.07826 24172.7 -2709.57)"/><path d="M-23379.8 3062.16C-23379.8 3062.16-23380.2 3073.89-23380.5 3089.53-23380.6 3097.88-23380.9 3107.46-23381 3116.89-23381.1 3122.42-23381.1 3127.95-23381.1 3133.34-23381.3 3154.23-23381.1 3171.76-23381.1 3171.76-23381.1 3172.7-23380.3 3173.37-23379.4 3173.37-23378.4 3173.37-23377.6 3172.7-23377.6 3171.76-23377.6 3171.76-23377.2 3154.37-23376.8 3133.34-23376.7 3128.08-23376.6 3122.42-23376.6 3116.89-23376.4 3107.32-23376.4 3097.88-23376.4 3089.53-23376.4 3073.75-23376.4 3062.16-23376.4 3062.16-23376.4 3061.35-23377.1 3060.54-23378 3060.54-23379 3060.68-23379.7 3061.35-23379.8 3062.16Z" fill-rule="evenodd" transform="matrix(1 0 0 1.07826 24202.4 -2709.57)"/><path d="M-23374 3062.16C-23374 3062.16-23374.4 3073.89-23374.7 3089.53-23374.8 3097.88-23375.1 3107.46-23375.2 3116.89-23375.3 3122.42-23375.3 3127.95-23375.3 3133.34-23375.5 3154.23-23375.3 3171.76-23375.3 3171.76-23375.3 3172.7-23374.5 3173.37-23373.6 3173.37-23372.6 3173.37-23371.8 3172.7-23371.8 3171.76-23371.8 3171.76-23371.4 3154.37-23371 3133.34-23370.9 3128.08-23370.8 3122.42-23370.8 3116.89-23370.6 3107.32-23370.6 3097.88-23370.6 3089.53-23370.6 3073.75-23370.6 3062.16-23370.6 3062.16-23370.6 3061.35-23371.3 3060.54-23372.2 3060.54-23373.2 3060.68-23373.9 3061.35-23374 3062.16Z" fill-rule="evenodd" transform="matrix(1 0 0 1.07826 24233.1 -2709.57)"/><path d="M-23368.1 3062.16C-23368.1 3062.16-23368.5 3073.89-23368.7 3089.53-23368.9 3097.88-23369.1 3107.46-23369.3 3116.89-23369.4 3122.42-23369.4 3127.95-23369.4 3133.34-23369.5 3154.23-23369.4 3171.76-23369.4 3171.76-23369.4 3172.7-23368.6 3173.37-23367.7 3173.37-23366.7 3173.37-23365.9 3172.7-23365.9 3171.76-23365.9 3171.76-23365.5 3154.37-23365.1 3133.34-23365 3128.08-23364.8 3122.42-23364.8 3116.89-23364.7 3107.32-23364.7 3097.88-23364.7 3089.53-23364.7 3073.75-23364.7 3062.16-23364.7 3062.16-23364.7 3061.35-23365.4 3060.54-23366.3 3060.54-23367.2 3060.68-23368.1 3061.35-23368.1 3062.16Z" fill-rule="evenodd" transform="matrix(1 0 0 1.07826 24264.5 -2709.57)"/><path d="M-23362.1 3062.16C-23362.1 3062.16-23362.4 3073.89-23362.8 3089.53-23362.9 3097.88-23363.2 3107.46-23363.3 3116.89-23363.5 3122.42-23363.5 3127.95-23363.5 3133.34-23363.6 3154.23-23363.5 3171.76-23363.5 3171.76-23363.5 3172.7-23362.7 3173.37-23361.7 3173.37-23360.8 3173.37-23360 3172.7-23360 3171.76-23360 3171.76-23359.6 3154.37-23359.2 3133.34-23359 3128.08-23358.9 3122.42-23358.9 3116.89-23358.8 3107.32-23358.8 3097.88-23358.8 3089.53-23358.8 3073.75-23358.8 3062.16-23358.8 3062.16-23358.8 3061.35-23359.4 3060.54-23360.4 3060.54-23361.3 3060.68-23362.1 3061.35-23362.1 3062.16Z" fill-rule="evenodd" transform="matrix(1 0 0 1.07826 24295.9 -2709.57)"/><path d="M-23356.5 3062.16C-23356.5 3062.16-23356.7 3073.89-23357.1 3089.53-23357.3 3097.88-23357.5 3107.46-23357.7 3116.89-23357.8 3122.42-23357.8 3127.95-23357.8 3133.34-23357.9 3154.23-23357.8 3171.76-23357.8 3171.76-23357.8 3172.7-23357 3173.37-23356.1 3173.37-23355.1 3173.37-23354.3 3172.7-23354.3 3171.76-23354.3 3171.76-23353.9 3154.37-23353.5 3133.34-23353.4 3128.08-23353.2 3122.42-23353.2 3116.89-23353.1 3107.32-23353.1 3097.88-23353.1 3089.53-23353.1 3073.75-23353.1 3062.16-23353.1 3062.16-23353.1 3061.35-23353.8 3060.54-23354.7 3060.54-23355.7 3060.68-23356.5 3061.35-23356.5 3062.16Z" fill-rule="evenodd" transform="matrix(1 0 0 1.07826 24325.8 -2709.57)"/><path d="M-23350.9 3062.16C-23350.9 3062.16-23351.2 3073.89-23351.6 3089.53-23351.7 3097.88-23352 3107.46-23352.2 3116.89-23352.3 3122.42-23352.3 3127.95-23352.3 3133.34-23352.4 3154.23-23352.3 3171.76-23352.3 3171.76-23352.3 3172.7-23351.5 3173.37-23350.5 3173.37-23349.6 3173.37-23348.8 3172.7-23348.8 3171.76-23348.8 3171.76-23348.4 3154.37-23348 3133.34-23347.8 3128.08-23347.7 3122.42-23347.7 3116.89-23347.6 3107.32-23347.6 3097.88-23347.6 3089.53-23347.6 3073.75-23347.6 3062.16-23347.6 3062.16-23347.6 3061.35-23348.2 3060.54-23349.2 3060.54-23350.1 3060.68-23350.9 3061.35-23350.9 3062.16Z" fill-rule="evenodd" transform="matrix(1 0 0 1.07826 24355.4 -2709.57)"/><path d="M-23344.6 3062.16C-23344.6 3062.16-23345 3073.89-23345.3 3089.53-23345.4 3097.88-23345.7 3107.46-23345.8 3116.89-23345.9 3122.42-23345.9 3127.95-23345.9 3133.34-23346.1 3154.23-23345.9 3171.76-23345.9 3171.76-23345.9 3172.7-23345.1 3173.37-23344.2 3173.37-23343.3 3173.37-23342.4 3172.7-23342.4 3171.76-23342.4 3171.76-23342 3154.37-23341.6 3133.34-23341.5 3128.08-23341.4 3122.42-23341.4 3116.89-23341.2 3107.32-23341.2 3097.88-23341.2 3089.53-23341.2 3073.75-23341.2 3062.16-23341.2 3062.16-23341.2 3061.35-23341.9 3060.54-23342.9 3060.54-23343.8 3060.68-23344.5 3061.35-23344.6 3062.16Z" fill-rule="evenodd" transform="matrix(1 0 0 1.07826 24389.3 -2709.57)"/><path d="M-23338.1 3062.16C-23338.1 3062.16-23338.5 3073.89-23338.8 3089.53-23338.9 3097.88-23339.2 3107.46-23339.3 3116.89-23339.5 3122.42-23339.5 3127.95-23339.5 3133.34-23339.6 3154.23-23339.5 3171.76-23339.5 3171.76-23339.5 3172.7-23338.7 3173.37-23337.7 3173.37-23336.8 3173.37-23336 3172.7-23336 3171.76-23336 3171.76-23335.6 3154.37-23335.2 3133.34-23335 3128.08-23334.9 3122.42-23334.9 3116.89-23334.8 3107.32-23334.8 3097.88-23334.8 3089.53-23334.8 3073.75-23334.8 3062.16-23334.8 3062.16-23334.8 3061.35-23335.4 3060.54-23336.4 3060.54-23337.3 3060.68-23338.1 3061.35-23338.1 3062.16Z" fill-rule="evenodd" transform="matrix(1 0 0 1.07826 24423.3 -2709.57)"/><path d="M-23331.7 3062.16C-23331.7 3062.16-23332.1 3073.89-23332.3 3089.53-23332.5 3097.88-23332.7 3107.46-23332.9 3116.89-23333 3122.42-23333 3127.95-23333 3133.34-23333.1 3154.23-23333 3171.76-23333 3171.76-23333 3172.7-23332.2 3173.37-23331.3 3173.37-23330.3 3173.37-23329.5 3172.7-23329.5 3171.76-23329.5 3171.76-23329.1 3154.37-23328.7 3133.34-23328.6 3128.08-23328.4 3122.42-23328.4 3116.89-23328.3 3107.32-23328.3 3097.88-23328.3 3089.53-23328.3 3073.75-23328.3 3062.16-23328.3 3062.16-23328.3 3061.35-23329 3060.54-23329.9 3060.54-23330.9 3060.68-23331.7 3061.35-23331.7 3062.16Z" fill-rule="evenodd" transform="matrix(1 0 0 1.07826 24457.9 -2709.57)"/><path d="M-23324.9 3062.16C-23324.9 3062.16-23325.2 3073.89-23325.6 3089.53-23325.7 3097.88-23326 3107.46-23326.1 3116.89-23326.3 3122.42-23326.3 3127.95-23326.3 3133.34-23326.4 3154.23-23326.3 3171.76-23326.3 3171.76-23326.3 3172.7-23325.5 3173.37-23324.5 3173.37-23323.6 3173.37-23322.8 3172.7-23322.8 3171.76-23322.8 3171.76-23322.4 3154.37-23322 3133.34-23321.8 3128.08-23321.7 3122.42-23321.7 3116.89-23321.6 3107.32-23321.6 3097.88-23321.6 3089.53-23321.6 3073.75-23321.6 3062.16-23321.6 3062.16-23321.6 3061.35-23322.2 3060.54-23323.2 3060.54-23324.2 3060.68-23324.9 3061.35-23324.9 3062.16Z" fill-rule="evenodd" transform="matrix(1 0 0 1.07826 24493.3 -2709.57)"/><path d="M-23318.5 3062.16C-23318.5 3062.16-23318.9 3073.89-23319.1 3089.53-23319.3 3097.88-23319.5 3107.46-23319.7 3116.89-23319.8 3122.42-23319.8 3127.95-23319.8 3133.34-23319.9 3154.23-23319.8 3171.76-23319.8 3171.76-23319.8 3172.7-23319 3173.37-23318 3173.37-23317.1 3173.37-23316.3 3172.7-23316.3 3171.76-23316.3 3171.76-23315.9 3154.37-23315.5 3133.34-23315.4 3128.08-23315.2 3122.42-23315.2 3116.89-23315.1 3107.32-23315.1 3097.88-23315.1 3089.53-23315.1 3073.75-23315.1 3062.16-23315.1 3062.16-23315.1 3061.35-23315.8 3060.54-23316.7 3060.54-23317.6 3060.68-23318.5 3061.35-23318.5 3062.16Z" fill-rule="evenodd" transform="matrix(1 0 0 1.07826 24528.2 -2709.57)"/><path d="M-23312.2 3062.16C-23312.2 3062.16-23312.7 3073.89-23312.9 3089.53-23313.1 3097.88-23313.3 3107.46-23313.5 3116.89-23313.6 3122.42-23313.6 3127.95-23313.6 3133.34-23313.7 3154.23-23313.6 3171.76-23313.6 3171.76-23313.6 3172.7-23312.8 3173.37-23311.8 3173.37-23310.9 3173.37-23310.1 3172.7-23310.1 3171.76-23310.1 3171.76-23309.7 3154.37-23309.3 3133.34-23309.2 3128.08-23309 3122.42-23309 3116.89-23308.9 3107.32-23308.9 3097.88-23308.9 3089.53-23308.9 3073.75-23308.9 3062.16-23308.9 3062.16-23308.9 3061.35-23309.6 3060.54-23310.5 3060.54-23311.4 3060.68-23312.2 3061.35-23312.2 3062.16Z" fill-rule="evenodd" transform="matrix(1 0 0 1.07826 24561.1 -2709.57)"/><path d="M-23305.5 3062.16C-23305.5 3062.16-23305.9 3073.89-23306.2 3089.53-23306.3 3097.88-23306.6 3107.46-23306.7 3116.89-23306.9 3122.42-23306.9 3127.95-23306.9 3133.34-23307 3154.23-23306.9 3171.76-23306.9 3171.76-23306.9 3172.7-23306 3173.37-23305.1 3173.37-23304.2 3173.37-23303.4 3172.7-23303.4 3171.76-23303.4 3171.76-23303 3154.37-23302.5 3133.34-23302.4 3128.08-23302.3 3122.42-23302.3 3116.89-23302.1 3107.32-23302.1 3097.88-23302.1 3089.53-23302.1 3073.75-23302.1 3062.16-23302.1 3062.16-23302.1 3061.35-23302.8 3060.54-23303.8 3060.54-23304.7 3060.68-23305.5 3061.35-23305.5 3062.16Z" fill-rule="evenodd" transform="matrix(1 0 0 1.07826 24596.8 -2709.57)"/><path d="M-22763.3 3230.02C-22763.6 3229-22764.2 3227.55-22764.2 3226.67-22764.3 3225.22-22764.5 3223.77-22764.6 3222.17-22764.8 3220.57-22764.8 3219.26-22764.8 3217.81-22764.9 3211.99-22765.5 3200.36-22762.2 3192.81-22760.3 3188.74-22757.4 3185.83-22753 3184.96-22744 3183.36-22738.9 3186.27-22736 3191.5-22733.5 3195.71-22732.8 3201.67-22732.6 3207.92-22732.5 3216.5-22733.8 3225.66-22733.5 3231.62-22733.5 3232.63-22734.2 3233.36-22735.1 3233.51-22736.1 3233.51-22736.9 3232.78-22737 3231.91-22737.6 3223.62-22735.1 3208.65-22737.7 3198.48-22738.6 3194.99-22740.1 3192.08-22742.7 3190.48-22744.9 3189.03-22747.9 3188.74-22752.1 3189.46-22756 3190.19-22758.1 3193.68-22759.2 3197.75-22761.3 3204.58-22761 3213.3-22761 3217.95-22761 3219.41-22761 3220.86-22761 3222.17-22761 3223.62-22760.8 3224.93-22760.7 3226.38-22760.6 3227.11-22760.1 3228.71-22759.8 3229.58-22759.7 3230.31-22759.7 3230.89-22759.7 3231.18-22759.8 3232.05-22760.3 3232.34-22760.8 3232.63-22761.1 3232.78-22762 3232.92-22762.9 3232.2-22763.5 3231.47-22763.6 3230.6-22763.3 3230.02ZM-22763.2 3230.31C-22763.3 3230.45-22763.3 3230.6-22763.2 3230.6-22763.2 3230.6-22763.2 3230.6-22763.2 3230.31-22763.2 3230.6-22763.2 3230.45-22763.2 3230.31Z" fill-rule="evenodd" transform="matrix(1.00221 0 0 1 23390.4 -2708.55)"/><path d="M-22719.9 3229C-22720 3228.13-22720.1 3226.38-22720.1 3225.66L-22720.3 3217.95C-22720.3 3212.72-22720.7 3207.2-22720.4 3201.82-22720.3 3198.04-22719.9 3194.41-22718.8 3190.92-22718.4 3189.17-22717.5 3186.27-22715.9 3184.38-22714.9 3183.21-22713.8 3182.49-22712.4 3182.2-22703.7 3180.89-22698.8 3184.52-22696.2 3190.63-22693.8 3196-22693.5 3203.71-22693.8 3211.12-22694.1 3218.82-22695.1 3226.24-22694.9 3230.74-22694.9 3231.76-22695.6 3232.49-22696.5 3232.63-22697.5 3232.63-22698.2 3231.91-22698.3 3231.03-22698.9 3223.62-22696.5 3208.21-22698.6 3197.31-22699.5 3192.95-22701.1 3189.17-22704.3 3187.43-22706.2 3186.41-22708.7 3185.97-22711.9 3186.56-22712.6 3186.7-22713 3187.43-22713.5 3188.3-22714.2 3189.61-22714.5 3191.06-22714.8 3192.08-22715.6 3195.28-22716.2 3198.77-22716.4 3202.11-22716.8 3207.34-22716.5 3212.86-22716.7 3217.95L-22716.8 3225.66C-22716.8 3226.53-22716.7 3228.27-22716.7 3229.29-22716.7 3230.16-22716.9 3230.89-22717.1 3231.18-22717.5 3231.76-22718 3231.91-22718.5 3231.91-22719 3231.91-22719.6 3231.91-22720.1 3231.18-22720.4 3230.74-22720.4 3229.73-22719.9 3229Z" fill-rule="evenodd" transform="matrix(1.00221 0 0 1 23390.4 -2708.55)"/><path d="M-22673.5 3233.07C-22673.2 3233.36-22673.1 3233.65-22672.9 3234.09-22672.8 3234.96-22673.3 3235.83-22674.2 3236.12-22674.9 3236.27-22675.5 3236.12-22675.8 3235.83-22676.4 3235.54-22677 3234.81-22677 3233.8-22677 3233.21-22676.8 3232.34-22676.5 3231.47-22676.4 3230.6-22676.1 3229.73-22676.1 3229L-22676.5 3219.11C-22676.8 3213.45-22677.4 3207.2-22676.8 3201.24-22676.5 3197.02-22675.5 3192.95-22673.6 3189.17-22672.2 3186.41-22669.1 3184.52-22665.1 3183.65-22658.2 3182.05-22648.9 3182.78-22644.4 3182.78-22642.5 3182.78-22640.2 3182.63-22638.2 3183.21-22636.4 3183.65-22634.8 3184.67-22633.8 3186.27-22632.4 3188.74-22631.6 3191.5-22631.3 3194.41-22630.9 3198.48-22631.3 3202.69-22631.3 3206.18-22631.5 3212.43-22631.2 3218.68-22631.2 3224.78-22631.2 3227.55-22631.2 3230.16-22631.3 3232.92-22631.3 3233.94-22632.2 3234.67-22633.1 3234.67-22634.1 3234.67-22634.8 3233.8-22634.8 3232.92-22634.8 3231.18-22634.8 3229.44-22634.8 3227.69-22634.8 3220.57-22635.4 3213.45-22635.3 3206.32-22635.3 3202.98-22635 3198.91-22635.4 3194.99-22635.7 3192.66-22636.3 3190.34-22637.4 3188.59-22637.9 3187.86-22638.5 3187.57-22639.2 3187.43-22640.9 3186.99-22642.8 3187.14-22644.4 3187.14-22648.2 3187.14-22655.3 3186.56-22661.4 3187.43-22663.8 3187.72-22665.8 3188.16-22667.4 3189.03-22668.4 3189.61-22669.3 3190.19-22669.9 3191.06-22671.6 3194.26-22672.3 3197.89-22672.8 3201.53-22673.3 3207.34-22672.9 3213.3-22672.8 3218.82L-22672.6 3228.85C-22672.6 3229.58-22672.9 3230.6-22673.2 3231.62-22673.2 3232.2-22673.3 3232.63-22673.5 3233.07Z" fill-rule="evenodd" transform="matrix(1.00221 0 0 1 23390.4 -2708.55)"/><path d="M-22753.6 3104C-22754 3103.71-22754.5 3103.71-22754.9 3103.71-22756.2 3103.71-22757.4 3104-22758.5 3104.14-22759.4 3104.29-22760.4 3104.29-22761.3 3104.58-22761.7 3104.72-22762.3 3104.72-22762.6 3105.16-22762.9 3105.6-22763 3106.32-22763.2 3106.9-22763.5 3108.36-22763.5 3109.81-22763.6 3110.97-22763.8 3112.72-22763.8 3114.46-22763.9 3116.06-22764 3120.13-22764 3124.2-22764.2 3128.27-22764.2 3129.58-22764.6 3131.61-22764.6 3133.5-22764.6 3134.52-22764.6 3135.54-22764.3 3136.12-22763.9 3136.99-22764.3 3138.01-22765.2 3138.3-22766.1 3138.74-22767.1 3138.3-22767.4 3137.43-22767.8 3136.55-22768 3135.39-22768.1 3134.23-22768.3 3132.19-22767.8 3129.72-22767.8 3128.12-22767.8 3124.64-22768 3121.15-22768 3117.66-22768 3115.33-22768 3112.86-22767.8 3110.54-22767.8 3109.08-22767.7 3106.9-22767.4 3105.16-22767.1 3104.14-22766.8 3103.12-22766.2 3102.4-22765.6 3101.67-22764.9 3100.94-22763.9 3100.65-22762.4 3100.07-22760.6 3099.93-22759.2 3099.64-22757.6 3099.49-22755.9 3099.05-22754.3 3099.2-22753.3 3099.34-22752.4 3099.49-22751.5 3100.07-22750.7 3100.51-22750.1 3101.38-22749.8 3102.25-22749.4 3103.56-22749.2 3105.3-22749.2 3106.32-22749.1 3108.07-22749.1 3109.81-22749.1 3111.41-22749.1 3114.03-22749.1 3116.5-22749.2 3119.11L-22749.5 3136.26C-22749.5 3137.28-22750.4 3138.01-22751.3 3138.01-22752.3 3138.01-22753 3137.14-22753 3136.26L-22753.3 3119.11C-22753.3 3116.64-22753.3 3114.17-22753.4 3111.7-22753.4 3110.1-22753.6 3108.36-22753.7 3106.76-22753.7 3106.18-22753.7 3105.45-22753.9 3104.87-22753.9 3104.58-22754 3104.29-22754 3104-22753.4 3104.14-22753.6 3104.14-22753.6 3104Z" fill-rule="evenodd" transform="matrix(1.00221 0 0 1 23390.4 -2708.55)"/><path d="M-22759.5 3101.82C-22759.4 3102.25-22759.5 3102.69-22759.7 3102.98-22760.1 3103.71-22761.1 3104-22762 3103.56-22762.2 3103.41-22762.7 3103.12-22762.9 3102.11-22762.9 3101.82-22762.9 3101.38-22763 3100.65-22763 3098.04-22763 3092.37-22762.9 3087.86-22762.7 3085.39-22762.7 3083.36-22762.6 3082.34-22762.4 3080.74-22761.4 3080.01-22761.3 3080.01-22761.1 3079.87-22760 3079.43-22758.7 3079.14-22757.5 3078.85-22756.3 3078.85-22755.5 3079.14-22754 3079.58-22752.9 3080.45-22752.7 3082.34L-22753.1 3101.23C-22753.1 3102.25-22753.9 3102.98-22754.9 3102.98-22755.9 3102.98-22756.6 3102.25-22756.6 3101.23L-22756.9 3083.21C-22757.2 3083.21-22757.4 3083.36-22757.6 3083.36-22757.8 3083.36-22758.1 3083.5-22758.2 3083.5-22758.2 3083.65-22758.2 3083.94-22758.2 3084.08-22758.7 3088.01-22759.2 3096.58-22759.4 3100.36-22759.4 3100.65-22759.5 3100.94-22759.5 3101.23-22759.4 3101.53-22759.1 3101.82-22759.5 3101.82ZM-22760.1 3100.8C-22759.8 3100.94-22759.7 3101.23-22759.7 3101.53-22759.7 3101.67-22759.7 3101.82-22759.5 3101.82L-22759.5 3101.82C-22759.5 3101.67-22759.5 3101.53-22759.7 3101.53L-22759.7 3101.53C-22759.7 3101.53-22759.7 3101.53-22759.7 3101.38L-22759.7 3101.23C-22759.8 3101.09-22760 3100.94-22760.1 3100.8ZM-22756.8 3083.21C-22756.6 3083.36-22756.5 3083.5-22756.5 3083.36-22756.5 3083.21-22756.6 3083.21-22756.8 3083.21ZM-22758.2 3083.21C-22757.8 3082.92-22757.5 3082.48-22758.1 3082.48-22758.2 3082.48-22758.2 3082.77-22758.2 3083.21Z" fill-rule="evenodd" transform="matrix(1.00221 0 0 1 23390.4 -2708.55)"/><path d="M-22734.5 3133.79-22734.5 3130.45C-22734.5 3128.27-22733.8 3112.57-22733.1 3103.27-22732.9 3100.36-22732.6 3098.04-22732.5 3097.02-22732.4 3096.15-22732.1 3095.71-22731.9 3095.57-22731.8 3095.28-22731.5 3094.98-22730.9 3094.69-22730.6 3094.55-22730.2 3094.4-22729.4 3094.4-22727.7 3094.11-22723.8 3093.97-22720.4 3093.97-22718.3 3093.97-22716.1 3094.11-22714.8 3094.55-22713.6 3094.84-22712.7 3095.28-22712.4 3095.71-22712.3 3096-22711.9 3096.58-22711.7 3097.46-22711.6 3098.76-22711.6 3101.23-22711.6 3104.58-22711.7 3114.46-22712.7 3130.89-22713 3134.81-22713 3135.83-22713.9 3136.55-22714.9 3136.41-22715.9 3136.41-22716.7 3135.54-22716.5 3134.52-22716.4 3131.9-22716.1 3123.76-22715.9 3115.77-22715.8 3108.94-22715.6 3102.11-22715.9 3099.05-22715.9 3098.91-22715.9 3098.76-22715.9 3098.62-22716.2 3098.62-22716.7 3098.47-22717.1 3098.47-22720.3 3098.18-22725.7 3098.33-22728.3 3098.62L-22728.3 3098.76C-22728.7 3101.67-22729.2 3107.78-22729.7 3113.88-22730.3 3121.58-22730.9 3129.29-22730.9 3130.74L-22731 3134.23C-22731 3134.37-22731.2 3134.67-22731.3 3134.96-22731.3 3135.1-22731.3 3135.1-22731.2 3135.25L-22731.2 3135.39C-22731.2 3135.54-22731.2 3135.68-22731.2 3135.68-22731.2 3136.41-22731.8 3137.14-22732.5 3137.28-22733.5 3137.43-22734 3136.99-22734.4 3136.55-22734.7 3136.26-22734.8 3135.83-22734.7 3135.25-22735 3134.96-22734.1 3133.94-22734.5 3133.79L-22734.5 3133.79-22734.5 3133.79C-22734.5 3133.94-22734.7 3133.79-22734.5 3133.79ZM-22731.6 3134.96C-22731.8 3135.25-22731.9 3135.54-22731.6 3135.54-22731.5 3135.54-22731.5 3135.54-22731.5 3135.54-22731.5 3135.39-22731.5 3135.39-22731.5 3135.25-22731.5 3135.25-22731.5 3135.1-22731.6 3134.96ZM-22728.9 3098.62C-22729.2 3098.62-22729.4 3098.62-22729.4 3098.76-22729.3 3099.05-22729.2 3098.91-22728.9 3098.62Z" fill-rule="evenodd" transform="matrix(1.00221 0 0 1 23390.4 -2708.55)"/><path d="M-22710.3 3097.46C-22709.5 3097.46-22708.8 3096.87-22708.7 3096.15L-22708.7 3096.15C-22708.7 3096.15-22707.4 3091.5-22707.4 3089.02-22707.4 3087.86-22707.8 3086.99-22708.1 3086.55-22708.5 3086.12-22709 3085.83-22709.5 3085.83-22713.3 3085.39-22718.8 3084.66-22724.1 3084.66-22727.9 3084.52-22731.3 3084.81-22734.1 3085.25-22734.8 3085.39-22735.6 3085.83-22736.1 3086.84-22736.4 3087.57-22736.7 3088.88-22736.9 3090.33-22737 3092.51-22736.7 3094.98-22736.1 3096-22735.7 3096.87-22735.1 3097.31-22734.5 3097.46-22734.4 3097.46-22734.1 3097.6-22733.5 3097.6-22732.8 3097.6-22731.2 3097.6-22729.2 3097.6-22722.2 3097.6-22710.3 3097.31-22710.3 3097.46L-22710.3 3097.46ZM-22732.6 3093.39C-22732.5 3093.82-22732.4 3093.97-22732.1 3093.97-22731.9 3093.97-22732.2 3093.68-22732.4 3093.68-22732.5 3093.53-22732.6 3093.53-22732.6 3093.39ZM-22711 3089.32C-22714.6 3089.02-22719.4 3088.73-22723.9 3088.73-22727.1 3088.73-22730.2 3088.88-22732.5 3089.32-22732.8 3090.33-22732.9 3092.37-22732.5 3093.39L-22711.4 3094.11C-22711.3 3093.24-22711 3092.22-22710.8 3091.06-22711 3090.48-22711 3089.75-22711 3089.32ZM-22732.6 3089.17C-22732.2 3089.02-22731.6 3088.73-22732.1 3088.59-22732.4 3088.59-22732.5 3088.73-22732.6 3089.17Z" fill-rule="evenodd" transform="matrix(1.00221 0 0 1 23390.4 -2708.55)"/><path d="M-22623.5 3043.97C-22623.5 3044.11-22623.5 3044.26-22623.5 3044.4-22623.5 3044.69-22623.6 3045.27-22624.5 3045.56-22624.7 3045.56-22624.8 3045.71-22625.1 3045.71-22625.4 3045.71-22626.1 3045.86-22627.1 3046-22631 3046.44-22639.3 3047.16-22646.9 3047.31-22651.1 3047.31-22655 3047.16-22657.6 3046.73-22659 3046.44-22660.1 3046.15-22660.7 3045.71-22662 3044.98-22662.4 3043.97-22662.4 3042.8-22662.3 3037.28-22662.4 3025.8-22662.3 3017.22-22662.2 3011.84-22662 3007.48-22661.9 3006.03-22661.9 3005.45-22661.6 3004.87-22660.8 3004.43-22660.6 3004.14-22660 3003.99-22659.2 3003.7-22657.5 3003.27-22653.6 3002.98-22649.1 3002.98-22641.1 3002.83-22630.6 3003.27-22625.8 3003.99-22624.1 3004.28-22622.9 3004.72-22622.5 3005.01-22622 3005.3-22621.7 3005.88-22621.5 3006.61-22621 3007.92-22620.9 3010.53-22621 3014.02-22621.3 3023.18-22623.2 3038.44-22623.5 3043.97L-22623.5 3043.97ZM-22625.2 3008.06C-22625.5 3008.06-22625.7 3007.92-22626 3007.92-22627 3007.77-22628.6 3007.63-22630.3 3007.48-22637.9 3006.9-22650.2 3006.9-22656 3007.48-22656.6 3007.48-22657.2 3007.63-22657.6 3007.77-22657.8 3009.08-22657.8 3011.12-22657.9 3013.59-22658.2 3022.16-22658.4 3035.68-22658.5 3042.37-22658.2 3042.51-22657.9 3042.66-22657.5 3042.66-22654.7 3043.38-22650.1 3043.53-22645 3043.53-22639 3043.53-22632.6 3043.09-22628.9 3042.8-22628 3042.8-22627.4 3042.66-22626.8 3042.66-22626.5 3037.13-22625.5 3026.09-22625.1 3017.66-22624.9 3014.02-22624.9 3010.83-22625.1 3008.94-22625.2 3008.5-22625.2 3008.21-22625.2 3008.06Z" fill-rule="evenodd" transform="matrix(1.00221 0 0 1 23390.4 -2708.55)"/><path d="M-23064.9 2857.97C-23065.2 2857.69-23065.7 2857.42-23066.2 2857.42L-23108.6 2857C-23109.3 2857-23109.8 2857.28-23110.3 2857.69-23110.3 2857.69-23111.5 2859.08-23112.3 2860.61-23112.8 2861.44-23113 2862.27-23113.3 2863.1-23113.5 2863.8-23113.2 2864.77-23112.6 2865.74-23111.8 2867.13-23110.3 2868.79-23110.3 2868.79-23109.8 2869.21-23109.3 2869.48-23108.6 2869.48L-23066.3 2869.07C-23065.7 2869.07-23065.2 2868.79-23064.9 2868.37-23064.9 2868.37-23063.5 2866.57-23062.7 2865.04-23062.3 2864.21-23062 2863.38-23062 2862.83-23062 2862.27-23062.3 2861.44-23062.7 2860.74-23063.4 2859.5-23064.9 2857.97-23064.9 2857.97L-23064.9 2857.97ZM-23067 2860.61-23107.5 2861.02C-23107.8 2861.3-23107.9 2861.72-23108.2 2862.13-23108.5 2862.55-23108.7 2863.1-23108.9 2863.52-23108.9 2863.66-23108.9 2863.8-23108.9 2863.8-23108.9 2863.66-23108.9 2863.66-23108.9 2863.52L-23108.9 2863.52C-23109.6 2863.66-23108.6 2864.77-23107.8 2865.6L-23067.1 2865.88C-23066.8 2865.6-23066.6 2865.04-23066.3 2864.63-23065.9 2864.07-23065.6 2863.52-23065.5 2863.1-23065.5 2862.83-23065.9 2862.27-23066.2 2861.85-23066.4 2861.44-23066.8 2861.02-23067 2860.61Z" fill-rule="evenodd" transform="matrix(1 0 0 1.04784 23785.6 -2708.55)"/><path d="M-22556.8 3016.93C-22555.2 3019.55-22549.1 3106.61-22548.9 3192.52-22548.9 3251.96-22563.5 3334.82-22559.8 3338.16-22555.5 3342.23-22532.1 3365.78-22524.8 3347.75-22519.4 3334.38-22505 3350.8-22489.2 3352.4-22469.1 3354.44-22449.8 3321.15-22428.3 3338.45-22410.3 3352.98-22408.1 3309.52-22412.9 3290.34-22419.6 3263.16-22435.4 3238.88-22446.9 3213.59-22451.1 3204.14-22459.1 3191.5-22459.8 3180.89-22460.3 3175.65-22428.6 3151.53-22413 3113.3-22396.4 3072.45-22396.2 3017.37-22396.2 3017.37-22396.2 3017.37-22540.5 3015.48-22556.8 3016.93Z" fill="#E67809" fill-rule="evenodd" transform="matrix(1.00221 0 0 1 23385.3 -2709.74)"/><path d="M38960.8 3018.09C38962.4 3020.71 38968.5 3107.78 38968.6 3193.68 38968.6 3253.13 38954.1 3335.98 38957.7 3339.32 38962.1 3343.39 38985.5 3366.94 38992.8 3348.91 38998.1 3335.54 39012.5 3351.97 39028.4 3353.57 39048.4 3355.6 39067.8 3322.32 39089.3 3339.61 39107.3 3354.15 39109.5 3310.69 39104.7 3291.5 39098 3264.32 39082.2 3240.05 39070.7 3214.75 39066.5 3205.31 39058.5 3192.66 39057.7 3182.05 39057.3 3176.82 39089 3152.69 39104.5 3114.46 39121.1 3073.62 39121.4 3018.53 39121.4 3018.53 39121.4 3018.53 38977.1 3016.64 38960.8 3018.09Z" fill="#E67809" fill-rule="evenodd" transform="matrix(-1.00644 0 0 1 40524.9 -2703.87)"/><path d="M-22206.9 3434.53-21427.2 3434.53-21427.2 3477.41-22206.9 3477.41Z" fill-rule="evenodd" transform="matrix(1.02107 0 0 1 23215.8 -2682.53)"/><path d="M-22575.1 3229.29-22781.6 3229.29-22781.6 3259.96-22575.1 3259.96-22575.1 3229.29ZM-22576.2 3132.92-22782.8 3132.92-22782.8 3163.59-22576.2 3163.59-22576.2 3132.92ZM-22575.7 3040.91-22782.2 3040.91-22782.2 3071.58-22575.7 3071.58-22575.7 3040.91Z" fill-rule="evenodd" transform="matrix(1.00221 0 0 1 23390.4 -2708.55)"/><path d="M-22494 3035.68-22494 3035.68C-22494.7 3035.1-22494.7 3033.94-22494.1 3033.35-22493.4 3032.48-22492.7 3032.48-22492.2 3032.63-22491.7 3032.77-22491.1 3033.06-22490.8 3033.79-22490.6 3034.08-22490.5 3034.81-22490.6 3035.83-22490.8 3037.28-22491.1 3039.46-22491.1 3040.48-22490.9 3042.95-22490.9 3045.27-22490.8 3047.74-22490.8 3050.22-22490.8 3052.54-22490.8 3055.01-22490.8 3061.26-22490.8 3067.51-22491.2 3073.76-22491.7 3080.01-22492.2 3086.26-22493.3 3092.51-22494.7 3101.53-22496.7 3110.68-22499.2 3119.69-22500.8 3125.65-22502.7 3131.47-22504.6 3137.43-22511.9 3159.38-22520.9 3181.03-22529.3 3201.96-22529.6 3202.84-22530.6 3203.27-22531.6 3202.98-22532.5 3202.69-22532.9 3201.67-22532.6 3200.8-22524.5 3179.72-22515.8 3158.07-22508.8 3136.12-22506.9 3130.3-22505.2 3124.49-22503.6 3118.53-22501.1 3109.66-22499.1 3100.8-22497.5 3091.79-22496.6 3086.99-22496 3082.05-22495.6 3077.11-22495 3069.69-22494.7 3062.28-22494.6 3054.87-22494.6 3051.96-22494.6 3049.05-22494.6 3046.29-22494.6 3044.4-22494.6 3042.51-22494.7 3040.62-22494.6 3039.31-22494.1 3037.13-22494 3035.68ZM-22493.8 3035.1-22493.8 3035.1C-22493.8 3034.95-22493.8 3034.81-22493.8 3034.81-22494.1 3034.81-22494 3034.95-22493.8 3035.1Z" fill-rule="evenodd" transform="matrix(1.00221 0 0 1 23390.4 -2708.55)"/><path d="M-22445.6 3044.11C-22445.6 3045.27-22445.4 3047.02-22445.6 3047.89-22445.9 3049.63-22446.2 3051.23-22446.6 3052.98-22447 3055.45-22447.6 3058.06-22448.2 3060.54-22449.4 3065.77-22450.7 3070.86-22452 3076.09-22453.3 3081.32-22454.7 3086.41-22456.2 3091.5-22459.1 3101.38-22461.9 3112.43-22464.9 3123.76-22467.8 3134.37-22471.2 3145.28-22474.9 3155.74-22480.3 3170.57-22486.9 3184.52-22495.4 3195.71-22496 3196.44-22497 3196.59-22497.9 3196-22498.6 3195.42-22498.8 3194.26-22498.2 3193.53-22490.1 3182.49-22483.8 3168.68-22478.7 3154.29-22475.1 3143.82-22472 3133.07-22469.1 3122.46-22466.1 3111.12-22463.2 3100.07-22460.1 3090.19-22458.5 3085.1-22457.1 3080.01-22455.8 3074.93-22454.3 3069.84-22453 3064.75-22451.8 3059.52-22451.2 3057.05-22450.7 3054.58-22450.1 3052.11-22449.8 3050.51-22449.4 3048.76-22449.1 3047.16-22448.9 3046.29-22449.1 3044.69-22449.1 3043.68-22449.1 3042.95-22448.9 3042.37-22448.8 3042.08-22448.5 3041.35-22447.9 3041.06-22447.3 3040.91-22446.9 3040.91-22446.2 3040.91-22445.4 3041.93-22444.8 3042.66-22445 3043.53-22445.6 3044.11ZM-22445.6 3043.53C-22445.4 3043.38-22445.4 3043.24-22445.6 3043.24L-22445.6 3043.53-22445.6 3043.53Z" fill-rule="evenodd" transform="matrix(1.00221 0 0 1 23390.4 -2708.55)"/><path d="M-21766.7 3141.8C-21767.2 3141.38-21767.3 3140.67-21767 3140.1-21766.5 3138.68-21765.5 3138.82-21765 3138.82-21764.6 3138.82-21764 3139.11-21763.8 3139.96-21763.5 3140.67-21763.3 3143.65-21763.2 3144.78-21763.1 3145.78-21763.1 3146.77-21762.9 3147.76-21762.8 3149.18-21762.8 3150.74-21762.8 3152.16-21762.6 3155.14-21762.6 3158.12-21762.6 3161.24-21762.6 3165.78-21762.6 3170.18-21762.8 3174.72-21762.9 3179.12-21763.1 3183.52-21763.2 3187.92-21763.3 3192.32-21763.6 3196.71-21763.9 3201.11-21764.8 3214.31-21766 3227.36-21767.2 3240.56-21767.2 3241.55-21768 3242.26-21769 3242.12-21770 3242.12-21770.6 3241.27-21770.6 3240.27-21769.7 3227.08-21768.9 3213.88-21768.2 3200.83-21767.9 3196.43-21767.7 3192.03-21767.5 3187.63-21767.2 3183.23-21767 3178.84-21766.9 3174.44-21766.7 3170.04-21766.6 3165.5-21766.5 3160.96-21766.5 3157.98-21766.3 3155-21766.5 3152.02-21766.5 3150.6-21766.5 3149.18-21766.6 3147.76-21766.6 3146.77-21766.6 3145.92-21766.7 3144.93-21766.6 3144.36-21766.6 3142.94-21766.7 3141.8L-21766.7 3141.8Z" fill-rule="evenodd" transform="matrix(1.034 0 0 1 23331 -2628.24)"/><path d="M-22489.8 3237.57C-22488.6 3239.03-22487.7 3241.35-22487 3243.82-22485.3 3249.49-22483.9 3256.47-22482.5 3260.54-22481 3264.46-22479.7 3268.24-22478.1 3272.02-22477.1 3274.49-22476.1 3277.11-22475.1 3279.58-22471.2 3289.03-22466.9 3298.48-22462.7 3307.78-22462.3 3308.65-22461.3 3309.09-22460.4 3308.65-22459.5 3308.22-22459.1 3307.2-22459.5 3306.33-22462.1 3300.08-22464.8 3293.68-22467.2 3287.43-22469.6 3281.76-22471.7 3276.09-22474.1 3270.42-22475.5 3266.65-22477.1 3262.87-22478.6 3259.09-22480.2 3255.02-22481.5 3248.19-22483.5 3242.66-22484.5 3239.75-22485.7 3237.28-22487.1 3235.54-22487.7 3234.81-22488.7 3234.67-22489.5 3235.25-22490.2 3235.83-22490.3 3236.85-22489.8 3237.57Z" fill-rule="evenodd" transform="matrix(1.00221 0 0 1 23390.4 -2708.55)"/><path d="M-22150.7 3056.18C-22151.2 3056.03-22151.5 3055.59-22151.8 3055.16-22152.1 3054.29-22151.7 3053.27-22150.8 3053.12-22150.2 3052.98-22149.5 3052.98-22148.9 3053.41-22148.5 3053.7-22147.8 3054.58-22147.3 3055.74-22146.2 3058.5-22145.3 3064.02-22145.1 3064.9-22144 3070.42-22142.8 3075.94-22141.5 3081.47-22140.2 3086.99-22138.9 3092.51-22137.4 3097.89-22135.7 3104.87-22133.8 3111.7-22131.8 3118.53-22128.6 3128.71-22125.1 3138.74-22120.4 3148.33-22115.3 3158.79-22109.1 3168.68-22101.1 3177.69-22100.4 3178.42-22100.5 3179.43-22101.2 3180.16-22102 3180.89-22103 3180.74-22103.7 3180.02-22112.1 3171-22118.8 3160.83-22124.2 3150.22-22129 3140.62-22132.9 3130.45-22136.1 3119.98-22138.2 3113.15-22140 3106.18-22141.8 3099.2-22143.1 3093.68-22144.4 3088.15-22145.6 3082.63-22146.7 3077.11-22147.9 3071.44-22148.9 3065.91-22148.8 3064.46-22149.5 3058.21-22150.7 3056.18ZM-22150.7 3056.03-22150.7 3056.03C-22150.7 3055.88-22150.7 3055.88-22150.8 3055.88-22150.9 3056.03-22150.8 3056.03-22150.7 3056.03Z" fill-rule="evenodd" transform="matrix(1.00221 0 0 1 23390.4 -2708.55)"/><path d="M-22115.9 3046C-22116.1 3045.71-22116.2 3045.42-22116.2 3045.13-22116.2 3044.26-22115.5 3043.53-22114.5 3043.53-22114 3043.53-22113.6 3043.68-22113.2 3044.11-22113 3044.26-22112.7 3044.84-22112.4 3045.56-22112 3047.6-22111.7 3052.98-22111.7 3053.41-22111.3 3058.36-22110.7 3063.3-22110.1 3068.09-22109.5 3073.04-22108.8 3077.83-22107.9 3082.77-22106.6 3091.06-22105.2 3099.49-22103.4 3107.92-22101.8 3116.21-22099.9 3124.64-22097.5 3132.78-22094.3 3143.68-22090.2 3154.29-22084.5 3164.03-22084.1 3164.9-22084.4 3165.92-22085.1 3166.35-22085.8 3166.79-22087 3166.5-22087.4 3165.77-22093.4 3156.03-22097.8 3145.28-22101.2 3133.94-22103.9 3125.65-22105.9 3117.22-22107.5 3108.79-22109.2 3100.22-22110.5 3091.64-22111.7 3083.36-22112.4 3078.41-22113.2 3073.47-22113.6 3068.53-22114.2 3063.59-22114.6 3058.65-22114.9 3053.56-22114.9 3053.27-22115 3048.04-22115.5 3046.15L-22115.5 3046.15C-22115.9 3046.15-22115.9 3046-22115.9 3046ZM-22114.8 3046.73-22114.8 3046.73-22114.8 3046.73ZM-22115 3046.73C-22114.9 3046.73-22114.9 3046.73-22114.8 3046.87-22114.9 3046.73-22115 3046.73-22115 3046.73ZM-22115.2 3046.58-22115.2 3046.58-22115.2 3046.58ZM-22115.8 3046.15C-22115.8 3046-22115.8 3046-22115.8 3046L-22115.8 3046C-22115.9 3046-22115.8 3046-22115.8 3046.15L-22115.8 3046.15-22115.8 3046.15-22115.8 3046.15-22115.6 3046.29-22115.8 3046.15-22115.8 3046.15-22115.8 3046.15Z" fill-rule="evenodd" transform="matrix(1.00221 0 0 1 23390.4 -2708.55)"/><path d="M-22062.6 3057.19C-22061.8 3058.65-22062.1 3061.26-22062.4 3064.31-22063.2 3071.15-22065.3 3079.72-22065.5 3083.07-22065.8 3088.73-22066.1 3094.4-22066.2 3100.07-22066.4 3105.74-22066.4 3111.41-22066.4 3117.08-22066.2 3128.42-22065.8 3139.75-22065 3151.09-22065 3152.11-22064.2 3152.83-22063.2 3152.69-22062.1 3152.69-22061.4 3151.82-22061.6 3150.95-22062 3141.93-22062.1 3132.92-22062.1 3123.91-22062.1 3117.22-22062 3110.39-22062 3103.71-22061.8 3096.87-22061.7 3090.19-22061.4 3083.36-22061.3 3080.01-22059.4 3071.44-22058.8 3064.75-22058.5 3060.83-22058.6 3057.48-22059.5 3055.88-22060 3055.01-22061 3054.72-22061.7 3055.16-22062.7 3055.3-22063 3056.32-22062.6 3057.19Z" fill-rule="evenodd" transform="matrix(1.00221 0 0 1 23390.4 -2708.55)"/><path d="M-22555 3208.21C-22554.4 3208.07-22553.6 3208.21-22552.7 3208.21-22550.2 3208.5-22547.2 3209.38-22545.6 3209.38-22542.4 3209.52-22539.3 3209.38-22536.1 3209.09-22533.1 3208.8-22529.9 3208.36-22526.8 3207.78-22521 3206.76-22515.1 3205.16-22509.1 3203.13-22503.4 3201.09-22497.8 3198.77-22492.2 3196.15-22481 3190.63-22470.3 3183.94-22461.4 3176.82-22460.7 3176.24-22460.5 3175.07-22461.1 3174.35-22461.7 3173.62-22462.9 3173.47-22463.6 3174.06-22472.6 3180.74-22483.1 3187.14-22494.1 3192.37-22499.5 3194.99-22505 3197.17-22510.6 3199.06-22516.4 3201.09-22522 3202.69-22527.6 3203.85-22530.5 3204.43-22533.5 3205.02-22536.4 3205.31-22539.3 3205.6-22542.4 3205.89-22545.3 3205.89-22547.2 3205.89-22550.7 3204.87-22553.1 3204.87-22554.2 3204.87-22555 3204.87-22555.8 3205.16-22556.6 3205.45-22557.2 3206.32-22556.9 3207.2-22556.6 3208.07-22555.9 3208.5-22555 3208.21Z" fill-rule="evenodd" transform="matrix(1.00221 0 0 1 23392.4 -2708.8)"/><path d="M-22551.4 3224.64C-22552.1 3224.78-22552.8 3224.49-22553.1 3223.77-22553.6 3222.89-22553.3 3221.88-22552.4 3221.44-22552.1 3221.3-22551.5 3221.15-22550.5 3221.3-22548.5 3221.44-22543.4 3222.6-22542.4 3222.6-22539.8 3222.6-22537.1 3222.46-22534.7 3222.02-22530.8 3221.59-22526.8 3220.71-22523 3219.84-22517.1 3218.53-22511.4 3217.08-22506.2 3215.34-22500.5 3213.45-22495.1 3211.41-22489.9 3208.94-22479.7 3204.14-22470.3 3198.04-22460.7 3189.9-22460 3189.32-22458.8 3189.32-22458.2 3190.04-22457.6 3190.77-22457.6 3191.93-22458.4 3192.52-22468.1 3201.09-22477.7 3207.78-22488 3212.86-22493.4 3215.48-22498.9 3217.66-22504.7 3219.55-22510.3 3221.3-22515.9 3222.75-22522.2 3223.91-22526.1 3224.64-22530.2 3225.37-22534.2 3225.8-22537 3226.09-22539.8 3226.24-22542.5 3226.09-22543.5 3226.09-22548.8 3224.78-22551 3224.49L-22551.1 3224.49C-22551 3224.49-22551 3224.35-22550.8 3224.35-22551 3224.35-22551.1 3224.49-22551.1 3224.49L-22551 3224.49C-22551.2 3224.78-22551.4 3224.78-22551.4 3224.64L-22551.4 3224.64-22551.4 3224.64-22551.4 3224.64Z" fill-rule="evenodd" transform="matrix(1.00221 0 0 1 23390.4 -2708.55)"/><path d="M-22127.5 3188.3C-22125.8 3189.32-22123.2 3190.19-22120.4 3190.77-22115 3191.79-22108.5 3192.08-22104.1 3192.37-22098.5 3192.81-22092.8 3192.95-22087.3 3192.66-22081.6 3192.37-22076.1 3191.64-22070.4 3190.63-22059.4 3188.59-22048.5 3185.25-22038.2 3180.74-22037.3 3180.45-22036.8 3179.29-22037.3 3178.42-22037.7 3177.54-22038.7 3177.11-22039.6 3177.54-22049.8 3181.61-22060.4 3184.67-22071.3 3186.41-22076.7 3187.28-22082.2 3187.86-22087.6 3188.3-22093.1 3188.59-22098.5 3188.74-22104 3188.45-22107.8 3188.3-22113 3188.16-22117.8 3187.57-22121 3187.14-22124.1 3186.56-22126.1 3185.54-22127 3185.1-22128 3185.39-22128.4 3186.12-22128.6 3186.85-22128.3 3187.86-22127.5 3188.3Z" fill-rule="evenodd" transform="matrix(1.00221 0 0 1 23390.4 -2708.55)"/><path d="M-22131.8 3203.85C-22130.9 3203.85-22129.7 3204-22128.6 3204.43-22124.1 3205.6-22118.1 3208.36-22114 3208.8-22107.2 3209.38-22100.1 3209.81-22092.8 3209.81-22088.2 3209.81-22083.4 3209.52-22078.7 3209.09-22066.6 3207.92-22054.7 3205.31-22044.3 3200.51-22043.4 3200.07-22043 3199.06-22043.4 3198.18-22043.8 3197.31-22044.8 3196.88-22045.7 3197.31-22053.9 3200.8-22063 3202.84-22072.3 3204-22077.8 3204.73-22083.4 3205.02-22088.9 3205.31-22097.5 3205.6-22105.9 3205.45-22113.7 3204.73-22117.7 3204.43-22123.3 3201.96-22127.7 3200.95-22129.3 3200.66-22130.6 3200.36-22131.9 3200.51-22132.8 3200.51-22133.5 3201.38-22133.5 3202.25-22133.5 3203.13-22132.6 3203.85-22131.8 3203.85Z" fill-rule="evenodd" transform="matrix(1.00221 0 0 1 23390.4 -2708.55)"/><path d="M-22098.5 3222.17-22098.5 3222.02C-22098.6 3221.15-22097.9 3220.28-22097 3220.28-22096.6 3220.28-22095.4 3220.28-22095.1 3221.73-22095.1 3221.88-22095.1 3222.31-22095.1 3222.89-22095.1 3225.07-22095.4 3230.6-22095.6 3230.89-22095.9 3234.38-22096.3 3237.87-22096.6 3241.35-22097.2 3246.59-22097.9 3251.82-22098.5 3257.05-22099.5 3265.34-22100.8 3273.62-22102 3281.91-22103.3 3290.19-22104.6 3298.48-22105.7 3306.76-22106.8 3313.88-22107.6 3321.01-22108.4 3328.13-22108.5 3329.15-22109.2 3329.87-22110.2 3329.73-22111.3 3329.58-22112 3328.86-22111.8 3327.84-22111.1 3318.25-22110.1 3308.65-22108.8 3299.2-22107.6 3290.63-22106.5 3282.05-22105.2 3273.62-22104.3 3267.95-22103.4 3262.28-22102.7 3256.62-22102 3251.38-22101.2 3246.15-22100.5 3240.92-22100.1 3237.43-22099.6 3233.94-22099.2 3230.45-22099.2 3230.16-22098.8 3224.93-22098.6 3222.75L-22098.6 3222.6C-22098.5 3222.31-22098.6 3222.17-22098.5 3222.17ZM-22098 3223.04C-22097.6 3223.48-22097.3 3223.62-22096.9 3223.62-22097.3 3223.48-22097.6 3223.33-22098 3223.04ZM-22098.5 3222.17C-22098.5 3222.31-22098.5 3222.31-22098.5 3222.46L-22098.5 3222.6-22098.5 3222.6C-22098.5 3222.75-22098.3 3222.75-22098.2 3222.89-22098.3 3222.75-22098.3 3222.6-22098.3 3222.46-22098.3 3222.31-22098.3 3222.17-22098.5 3222.17L-22098.5 3222.17Z" fill-rule="evenodd" transform="matrix(1.00221 0 0 1 23390.4 -2708.55)"/><path d="M-22064.3 3224.78-22064.3 3224.93C-22064.5 3225.8-22064.8 3227.98-22064.8 3228.42L-22064.8 3235.1C-22064.8 3237.87-22064.6 3240.77-22064.6 3243.53-22064.5 3247.75-22064.3 3251.96-22064 3256.18-22063.9 3261.12-22063.4 3266.21-22063.2 3271.15-22062.9 3276.09-22062.4 3281.18-22062.1 3286.12-22061.3 3296.15-22060.4 3306.18-22059.1 3316.06-22058.9 3317.08-22059.7 3317.95-22060.5 3317.95-22061.4 3317.95-22062.4 3317.37-22062.4 3316.5-22063.9 3306.47-22065.2 3296.59-22066.2 3286.41-22066.6 3281.33-22067.1 3276.38-22067.5 3271.3-22067.8 3266.21-22068.1 3261.27-22068.2 3256.18-22068.4 3252.69-22068.4 3249.06-22068.5 3245.57-22068.5 3242.08-22068.5 3238.45-22068.5 3234.96L-22068.2 3228.13C-22068.2 3227.69-22067.8 3225.37-22067.7 3224.35-22067.4 3222.31-22064.3 3223.62-22064.3 3223.62-22064.3 3224.06-22064.3 3224.49-22064.3 3224.78Z" fill-rule="evenodd" transform="matrix(1.00221 0 0 1 23390.4 -2708.55)"/><path d="M-22629.7 3188.01C-22629.7 3188.01-22674.8 3189.03-22675.8 3187.86-22678.1 3185.1-22678.6 3179.87-22674.9 3178.13-22665.1 3173.33-22629.9 3174.49-22628.3 3176.82-22626.1 3179.87-22625.8 3187.43-22629.7 3188.01ZM-22759.2 3189.03C-22759.7 3189.32-22761.7 3187.28-22761.9 3187.14-22763.9 3185.1-22766.4 3181.76-22765.2 3178.71-22764.2 3176.24-22761.3 3175.22-22758.8 3174.78-22753.4 3173.91-22747.8 3173.18-22742.4 3173.47-22739.8 3173.62-22737 3174.06-22735.6 3176.38-22733.8 3179.14-22734.5 3182.49-22734.8 3185.39-22735 3186.41-22735 3188.3-22736.1 3188.74-22738.9 3189.75-22743.1 3187.28-22745.9 3186.85-22749.7 3186.27-22753.7 3187.86-22757.4 3188.74L-22759.2 3189.03ZM-22715.5 3185.68C-22715.9 3186.41-22719.4 3184.67-22719.7 3184.52-22722.8 3182.49-22723.9 3175.36-22719.4 3174.2-22716.7 3173.47-22713.5 3173.91-22710.7 3173.91-22706.8 3173.91-22702.4 3172.75-22698.6 3174.64-22694.3 3176.82-22694.1 3184.52-22699.2 3185.68L-22715.5 3185.68Z" fill="#E67809" fill-rule="evenodd" transform="matrix(1.00221 0 0 1 23390.4 -2708.55)"/><path d="M-22337 3210.1C-22337 3209.67-22337.1 3209.09-22337.1 3208.5-22337.3 3207.34-22337.4 3206.18-22337.1 3205.31-22336.7 3203.42-22336.3 3201.53-22335.7 3199.78-22335.1 3197.89-22334.5 3196.15-22333.9 3194.41-22333.2 3192.22-22332.3 3190.19-22331.3 3188.3-22330.3 3186.27-22329.1 3184.38-22328 3182.49-22324.5 3177.11-22320.3 3172.17-22315.8 3167.08-22315.2 3166.35-22314 3166.21-22313.3 3166.79-22312.6 3167.37-22312.4 3168.53-22313 3169.26-22317.1 3174.35-22320.9 3179.29-22324.2 3184.67-22325.2 3186.41-22326.2 3188.3-22327.3 3190.04-22328.1 3191.93-22329 3193.68-22329.7 3195.71-22330.5 3197.46-22331 3199.2-22331.6 3200.95-22332.2 3202.69-22332.8 3204.43-22333.2 3206.18-22333.4 3206.76-22333.2 3207.78-22333.2 3208.65-22333.2 3209.67-22333.2 3210.68-22333.4 3211.27-22333.7 3212.14-22334.1 3212.72-22334.7 3213.01-22335.1 3213.16-22335.5 3213.3-22336.1 3213.3-22337 3213.3-22337.7 3212.43-22337.6 3211.56-22337.9 3210.83-22337.6 3210.39-22337 3210.1Z" fill="#E67809" fill-rule="evenodd" transform="matrix(1.00221 0 0 1 23373.3 -2709.15)"/><path d="M-22331.9 3191.93C-22331.6 3192.08-22331.3 3192.37-22331 3192.66-22330.6 3193.53-22330.9 3194.55-22331.8 3194.99-22332.5 3195.42-22333.5 3195.28-22334.7 3194.55-22336.1 3193.53-22338 3190.77-22338.3 3190.34-22339.6 3188.3-22340.3 3186.12-22340.6 3183.79-22340.9 3181.61-22340.8 3179.29-22340.2 3176.96-22339.8 3174.93-22338.9 3173.47-22338 3172.75-22337.3 3172.17-22336.6 3171.88-22335.8 3171.88-22334.7 3171.88-22333.2 3172.6-22331.9 3175.07L-22330.9 3177.84C-22330.6 3178.71-22330.5 3179.58-22330.2 3180.6-22330 3181.47-22329.9 3182.49-22329.9 3183.36-22329.9 3184.67-22329.9 3186.12-22330.2 3187.43-22330.3 3188.74-22330.7 3190.04-22331.2 3191.21-22331.3 3191.35-22331.6 3191.79-22331.9 3191.93ZM-22332.5 3191.79C-22332.5 3191.64-22332.6 3191.79-22332.8 3191.79L-22332.8 3191.79C-22332.6 3191.79-22332.6 3191.79-22332.5 3191.79ZM-22335.8 3176.96C-22336 3177.25-22336 3177.54-22336.1 3177.84-22336.6 3179.58-22336.9 3181.47-22336.7 3183.21-22336.6 3184.96-22336.1 3186.7-22335.3 3188.3-22335.1 3188.45-22335 3188.88-22334.5 3189.46-22334.2 3188.45-22334.1 3187.57-22334.1 3186.56-22333.9 3185.54-22333.9 3184.38-22334.1 3183.36-22334.2 3182.63-22334.2 3181.91-22334.5 3181.18-22334.7 3180.45-22335 3179.72-22335.3 3179L-22335.8 3176.96ZM-22336.1 3176.24C-22336.3 3175.95-22336.4 3175.8-22336.4 3175.95-22336.6 3176.24-22336.4 3176.24-22336.1 3176.24ZM-22335.4 3176.24C-22335.3 3176.24-22335.1 3176.09-22335.3 3175.95-22335.4 3175.95-22335.4 3176.09-22335.4 3176.24Z" fill="#E67809" fill-rule="evenodd" transform="matrix(1.00221 0 0 1 23373.3 -2709.15)"/><path d="M-22330.3 3195.71C-22330.7 3195.57-22331.2 3195.28-22331.5 3194.84-22331.9 3193.97-22331.8 3192.95-22330.9 3191.93-22329.9 3190.77-22327.4 3189.46-22326.5 3189.03-22324.6 3188.01-22322.6 3187.28-22320.6 3186.56-22318.5 3185.97-22316.5 3185.54-22314.5 3185.25-22314.2 3185.25-22311.4 3184.81-22310.4 3184.96-22308.8 3185.1-22308.2 3186.27-22308.1 3186.7-22307.9 3187.28-22307.9 3188.16-22308.4 3189.03-22308.9 3190.34-22310.4 3192.08-22310.8 3192.66-22311.3 3193.24-22311.7 3193.82-22312.3 3194.26-22312.9 3194.7-22313.3 3195.13-22313.9 3195.57-22314.8 3196.15-22315.6 3196.73-22316.7 3197.17-22317.7 3197.6-22318.5 3197.89-22319.6 3198.04-22321.2 3198.33-22322.8 3198.48-22324.2 3198.48-22325.8 3198.48-22327.3 3198.18-22328.9 3197.75-22330 3197.75-22330.6 3196.73-22330.3 3195.71-22330.3 3195.86-22330.3 3195.86-22330.3 3195.71ZM-22313.9 3189.61-22313.9 3189.61C-22315.8 3189.9-22317.7 3190.19-22319.6 3190.63-22321.4 3191.06-22323.2 3191.64-22324.8 3192.37-22325.4 3192.66-22327.3 3193.39-22328.1 3194.11-22328.1 3194.26-22328.1 3194.41-22328.1 3194.41L-22328 3194.41C-22326.7 3194.7-22325.4 3194.7-22324.1 3194.7-22322.8 3194.7-22321.6 3194.41-22320.3 3194.11-22319.6 3193.97-22318.8 3193.68-22318.1 3193.39-22317.4 3193.1-22316.8 3192.66-22316.2 3192.22-22315.8 3191.93-22315.5 3191.5-22315.1 3191.21-22314.8 3190.92-22314.3 3190.48-22314 3190.04-22314.2 3190.04-22314 3189.9-22313.9 3189.61ZM-22311.6 3189.03C-22311.3 3189.32-22310.8 3189.75-22310.8 3189.32-22310.8 3189.03-22311.1 3189.03-22311.6 3189.03ZM-22312.4 3187.72C-22312.3 3187.57-22312.3 3187.43-22312.4 3187.43-22312.6 3187.28-22312.4 3187.57-22312.4 3187.72Z" fill="#E67809" fill-rule="evenodd" transform="matrix(1.00221 0 0 1 23373.3 -2709.15)"/><path d="M-22312 3168.39C-22312.1 3168.53-22312.3 3168.68-22312.4 3168.68-22312.7 3168.97-22313.3 3169.11-22314 3168.82-22314.5 3168.68-22315.6 3167.66-22316.1 3167.08-22316.5 3166.5-22316.9 3165.92-22317.4 3165.19-22317.7 3164.46-22318 3163.88-22318.2 3163.15-22319 3161.26-22319.7 3158.07-22319.4 3155.16-22319.3 3152.69-22318.2 3150.65-22316.5 3149.49-22315.2 3148.62-22313.7 3148.62-22312.6 3149.06-22311 3149.64-22309.7 3151.24-22309.2 3152.83-22308.8 3154.14-22308.7 3155.31-22308.8 3156.47-22307.2 3154.58-22305 3152.4-22303 3151.24-22300.4 3149.78-22297.9 3149.78-22296 3151.67-22295.1 3152.54-22294.7 3153.56-22294.7 3154.72-22294.7 3156.47-22295.7 3158.5-22296.4 3159.67-22296.7 3160.1-22297.2 3160.54-22297.6 3161.12-22296 3161.12-22294.4 3161.26-22293.2 3161.7-22290.9 3162.43-22289.3 3164.03-22289.2 3166.64-22289 3168.39-22289.6 3169.84-22290.6 3170.86-22291.9 3172.31-22294 3173.18-22295.7 3173.47-22298.3 3173.91-22301.1 3173.77-22303.7 3173.04-22306.2 3172.31-22308.7 3171.29-22310.7 3169.99-22311.4 3169.55-22311.7 3168.68-22311.4 3167.95L-22311.4 3167.95-22311.4 3167.95C-22311.6 3168.24-22311.9 3168.39-22312 3168.39ZM-22307.3 3167.95C-22305.9 3168.68-22304.2 3169.4-22302.6 3169.7-22300.5 3170.28-22298.3 3170.42-22296.2 3169.99-22295.3 3169.84-22294.3 3169.4-22293.5 3168.82-22293.1 3168.39-22292.7 3167.81-22292.8 3167.22-22293 3165.92-22294.1 3165.63-22295.4 3165.48-22298.3 3165.04-22302 3165.92-22303.7 3166.35L-22304 3166.5C-22305 3167.08-22306.2 3167.66-22307.3 3167.95ZM-22313 3165.48C-22312.9 3165.48-22312.7 3165.63-22312.6 3165.63-22312.6 3165.48-22312.7 3165.48-22313 3165.48ZM-22314.3 3163.74C-22314.2 3163.15-22314.2 3162.72-22314 3162.14-22313.6 3160.54-22313 3158.79-22312.7 3157.2-22312.6 3156.18-22312.6 3155.31-22312.9 3154.29-22313 3153.85-22313.2 3153.42-22313.6 3153.13-22313.9 3152.83-22314.2 3152.69-22314.6 3152.83-22315.8 3153.56-22315.9 3155.16-22315.9 3156.61-22315.9 3158.65-22315.5 3160.83-22315.1 3162.14-22314.8 3162.72-22314.5 3163.15-22314.3 3163.74ZM-22306.2 3162.86C-22305.6 3162.57-22305.2 3162.28-22304.6 3161.85-22302.6 3160.54-22300.8 3158.94-22299.9 3157.49-22299.6 3157.2-22299.5 3156.76-22299.2 3156.32-22299.1 3156.03-22298.9 3155.6-22298.9 3155.31-22298.9 3155.16-22298.8 3154.87-22298.9 3155.01L-22298.9 3155.01C-22299.4 3154.72-22299.8 3154.87-22300.2 3155.01-22301.1 3155.45-22302 3156.03-22303 3156.9-22305.2 3158.94-22307.2 3161.56-22307.9 3162.57L-22308.5 3163.59-22306.2 3162.86Z" fill="#E67809" fill-rule="evenodd" transform="matrix(1.00221 0 0 1 23373.3 -2709.15)"/><path d="M-22364.2 3207.92-22301.8 3207.92-22301.8 3226.53-22364.2 3226.53Z" fill-rule="evenodd" transform="matrix(1.00221 0 0 1 23373.3 -2709.15)"/><path d="M-22358.5 3223.04C-22358.7 3222.6-22358.5 3224.06-22358.5 3224.64-22358.4 3225.95-22358.2 3227.25-22358.1 3228.42-22357.6 3232.05-22357.2 3235.69-22356.9 3239.32-22355.9 3248.48-22355 3257.78-22353.9 3266.94-22353.6 3268.83-22353.6 3274.93-22350.8 3275.37-22342.2 3276.67-22332.9 3275.95-22324.2 3276.09-22323.2 3276.09-22316.8 3277.26-22315.9 3276.24-22315.3 3275.51-22315.2 3272.9-22315.1 3272.02-22314.3 3268.24-22313.6 3264.46-22312.9 3260.69-22310.5 3247.6-22309.2 3234.38-22306.8 3221.44" fill-rule="evenodd" transform="matrix(1.00221 0 0 1 23373.3 -2709.15)"/><path d="M-22356.2 3226.96C-22356.2 3226.96-22351.2 3227.25-22344.4 3227.55-22340.9 3227.69-22336.7 3227.84-22332.6 3227.98-22330.3 3227.98-22327.8 3227.98-22325.7 3228.13-22318.4 3228.13-22312 3228.13-22309.2 3228.13-22308.2 3228.13-22307.5 3227.4-22307.5 3226.38-22307.5 3225.37-22308.2 3224.64-22309.2 3224.64-22312 3224.49-22318.4 3224.2-22325.7 3223.91-22328 3223.77-22330.3 3223.77-22332.6 3223.77-22336.7 3223.62-22340.8 3223.62-22344.4 3223.62-22351.2 3223.62-22356.2 3223.77-22356.2 3223.77-22357.1 3223.77-22357.9 3224.49-22357.9 3225.37-22357.8 3226.24-22357.1 3226.96-22356.2 3226.96Z" fill="#FFFFFF" fill-rule="evenodd" transform="matrix(1.00221 0 0 1 23373.3 -2709.14)"/><path d="M-22349.2 3277.84C-22349.2 3277.84-22345.9 3277.98-22341.2 3277.98-22338.7 3277.98-22336 3277.98-22333.2 3277.98-22331.6 3277.98-22330 3277.84-22328.4 3277.84-22323.9 3277.69-22319.7 3277.4-22317.2 3277.4-22316.2 3277.4-22315.5 3276.67-22315.5 3275.66-22315.5 3274.64-22316.2 3273.91-22317.2 3273.91-22319.7 3273.77-22323.9 3273.62-22328.6 3273.62-22330.2 3273.62-22331.8 3273.62-22333.4 3273.62-22336.1 3273.62-22338.9 3273.77-22341.4 3273.91-22346 3274.2-22349.4 3274.49-22349.4 3274.49-22350.2 3274.49-22351 3275.22-22351 3276.24-22350.8 3277.11-22350.1 3277.84-22349.2 3277.84Z" fill="#FFFFFF" fill-rule="evenodd" transform="matrix(1.00221 0 0 1 23373.3 -2709.14)"/><path d="M-22463.3 3426.39C-22463.5 3426.53-22463 3398.19-22461.6 3392.08-22458.5 3378.13-22436.6 3375.22-22424.2 3384.09-22419.6 3387.58-22420.3 3425.95-22420.3 3425.95-22420.3 3425.95-22458.4 3426.53-22463.3 3426.39Z" fill-rule="evenodd" transform="matrix(1.00221 0 0 1 23396.5 -2711.66)"/><path d="M-22442.7 3426.24C-22442.8 3426.39-22442.4 3398.04-22440.9 3391.94-22437.9 3377.99-22415.9 3375.08-22403.6 3383.94-22398.9 3387.43-22399.6 3425.81-22399.6 3425.81-22399.6 3425.81-22437.7 3426.24-22442.7 3426.24Z" fill-rule="evenodd" transform="matrix(1.00221 0 0 1 23506.9 -2712.82)"/><path d="M-22340.8 3422.32-22367.8 3422.32C-22367.8 3422.32-22363.3 3335.25-22358.2 3329.44-22353.9 3324.35-22344.1 3323.77-22341.7 3330.45-22334.7 3348.19-22340.8 3422.32-22340.8 3422.32Z" fill-rule="evenodd" transform="matrix(1.00221 0 0 1 23373.3 -2709.14)"/><path d="M-22346.2 3373.77C-22346 3373.33-22345.9 3372.75-22345.7 3372.17-22345 3369.7-22344.3 3365.78-22343.4 3361.71-22342.4 3356.18-22341.2 3350.66-22341.1 3348.48-22340.9 3347.46-22340.2 3346.88-22339.2 3346.88-22338.2 3346.88-22337.6 3347.75-22337.6 3348.77-22337.7 3351.68-22339.2 3360.98-22340.3 3367.81-22340.9 3371.15-22341.5 3373.92-22341.9 3375.22-22342.2 3375.95-22342.5 3376.53-22342.7 3376.68-22343.4 3377.55-22344.7 3378.13-22346.2 3378.13-22347.8 3378.13-22349.9 3377.4-22351.1 3377.4-22352.7 3377.26-22354.6 3377.55-22356.3 3377.11-22357.3 3376.82-22358.4 3376.53-22359.1 3375.8-22359.5 3375.51-22360.3 3374.5-22360.7 3372.9-22361.3 3371.01-22361.9 3367.81-22362.3 3364.32-22362.9 3359.82-22363.3 3354.87-22363.3 3351.68-22363.3 3349.93-22363.2 3348.48-22363 3347.9-22362.7 3347.02-22361.7 3346.59-22360.8 3346.88-22360 3347.17-22359.5 3348.19-22359.8 3349.06-22360 3349.35-22360 3350.08-22359.8 3351.09-22359.7 3353.57-22359.2 3357.49-22358.7 3361.27-22358.1 3365.05-22357.3 3368.83-22356.6 3371.15-22356.5 3371.88-22356.3 3372.9-22356 3372.61L-22356 3372.61-22356.2 3372.46-22356 3372.61C-22355.6 3372.75-22355.2 3372.9-22354.7 3372.9-22353.3 3373.04-22351.8 3372.9-22350.7 3373.04-22349.9 3373.04-22348.6 3373.48-22347.3 3373.62-22346.9 3373.62-22346.4 3373.77-22346.2 3373.77-22346.4 3373.77-22346.3 3373.77-22346.2 3373.77Z" fill="#FEF9FA" fill-rule="evenodd" transform="matrix(1.00221 0 0 1 23373.3 -2709.14)"/><path d="M-22431.5 3387.87-22430 3388.6C-22429.2 3389.03-22428.3 3389.32-22427.3 3389.47-22426.2 3389.76-22425.4 3389.9-22424.4 3389.9-22422.9 3390.05-22421.4 3390.05-22420.1 3390.05-22418.7 3390.05-22417.2 3389.76-22415.9 3389.47-22413.2 3388.89-22410.4 3387.87-22407.8 3386.42-22406.9 3385.98-22405.9 3386.12-22405.5 3387-22405 3387.87-22405.2 3388.89-22406 3389.32-22408.9 3391.21-22411.9 3392.67-22415.1 3393.54-22416.7 3393.97-22418.4 3394.26-22420 3394.26-22421.6 3394.41-22423.3 3394.26-22425.1 3393.97-22426.2 3393.83-22427.4 3393.54-22428.6 3393.1-22429.7 3392.67-22430.9 3392.23-22431.9 3391.65L-22433.8 3390.49C-22433.8 3390.49-22434.5 3389.9-22434.7 3389.61-22436.1 3388.01-22433.8 3386.71-22433.5 3386.71-22433.1 3386.71-22432.6 3387-22432.3 3387.29-22432.3 3387.29-22432.2 3387.58-22432.1 3387.58-22431.9 3387.87-22431.9 3388.16-22431.9 3388.45L-22431.9 3388.6C-22431.9 3388.31-22431.9 3388.01-22432.1 3387.58L-22432.1 3387.58-22432.1 3387.43-22432.1 3387.43-22432.1 3387.43-22432.1 3387.43-22432.1 3387.43-22432.1 3387.43-22432.1 3387.43-22431.9 3387.58-22431.9 3387.58-22431.9 3387.58-22431.9 3387.58-22431.9 3387.58C-22431.8 3388.01-22431.6 3388.01-22431.5 3387.87-22431.5 3388.01-22431.5 3387.87-22431.5 3387.87L-22431.5 3387.87C-22431.6 3387.87-22431.6 3387.87-22431.5 3387.87ZM-22432.1 3389.9C-22432.2 3390.05-22432.5 3390.19-22432.6 3390.34-22432.5 3390.19-22432.2 3390.05-22432.1 3389.9ZM-22431.6 3389.03C-22431.6 3389.18-22431.8 3389.32-22431.8 3389.47-22431.8 3389.32-22431.8 3389.18-22431.6 3389.03Z" fill="#FEF9FA" fill-rule="evenodd" transform="matrix(1.00221 0 0 1 23373.3 -2709.14)"/><path d="M-22410.8 3387.72-22409.4 3388.45C-22408.5 3388.89-22407.6 3389.18-22406.6 3389.32-22405.6 3389.61-22404.7 3389.76-22403.7 3389.76-22402.3 3389.9-22400.8 3389.9-22399.5 3389.9-22398 3389.9-22396.6 3389.61-22395.3 3389.32-22392.5 3388.74-22389.8 3387.72-22387.1 3386.27-22386.3 3385.83-22385.3 3385.98-22384.8 3386.85-22384.4 3387.72-22384.5 3388.74-22385.4 3389.18-22388.3 3391.07-22391.2 3392.52-22394.4 3393.39-22396 3393.83-22397.8 3394.12-22399.4 3394.12-22401 3394.26-22402.7 3394.12-22404.4 3393.83-22405.6 3393.68-22406.8 3393.39-22407.9 3392.96-22409.1 3392.52-22410.3 3392.08-22411.3 3391.5L-22413.2 3390.34C-22413.2 3390.34-22413.9 3389.76-22414 3389.47-22415.5 3387.87-22413.2 3386.56-22412.9 3386.56-22412.4 3386.56-22412 3386.85-22411.7 3387.14-22411.7 3387.14-22411.6 3387.43-22411.4 3387.43-22411.3 3387.72-22411.3 3388.01-22411.3 3388.31L-22411.3 3388.45C-22411.3 3388.16-22411.3 3387.87-22411.4 3387.43L-22411.4 3387.43-22411.4 3387.29-22411.4 3387.29-22411.4 3387.29-22411.4 3387.29-22411.4 3387.29-22411.4 3387.29-22411.4 3387.29-22411.3 3387.43-22411.3 3387.43-22411.3 3387.43-22411.3 3387.43-22411.3 3387.43C-22411 3387.72-22410.8 3387.72-22410.8 3387.72L-22410.8 3387.72-22410.8 3387.72-22410.8 3387.72ZM-22411.4 3389.61C-22411.6 3389.76-22411.9 3389.9-22412 3390.05-22411.7 3389.9-22411.6 3389.76-22411.4 3389.61ZM-22411 3388.89C-22411 3389.03-22411.1 3389.18-22411.1 3389.32-22411.1 3389.18-22411 3389.03-22411 3388.89Z" fill="#FEF9FA" fill-rule="evenodd" transform="matrix(1.00221 0 0 1 23483.6 -2710.31)"/><path d="M-19042.3 3432.2-19240.7 3432.2-19248.1 3456.33-19034.2 3455.89-19042.3 3432.2Z" fill="#E67809" fill-rule="evenodd" transform="matrix(1.11849 0 0 1 22383.2 -2709.14)"/></g></g></g></g></svg>