<svg width="24" height="25" viewBox="0 0 24 25" fill="none" xmlns="http://www.w3.org/2000/svg">
<path d="M19.4846 20.654L13.2226 14.392C12.7226 14.818 12.1476 15.1477 11.4976 15.381C10.8476 15.6144 10.1943 15.731 9.53762 15.731C7.93628 15.731 6.58095 15.1767 5.47162 14.068C4.36228 12.9594 3.80762 11.6044 3.80762 10.003C3.80762 8.40171 4.36162 7.04605 5.46962 5.93605C6.57762 4.82605 7.93228 4.27038 9.53362 4.26905C11.135 4.26771 12.491 4.82238 13.6016 5.93305C14.7123 7.04371 15.2676 8.39938 15.2676 10C15.2676 10.6947 15.1446 11.367 14.8986 12.017C14.6526 12.667 14.3293 13.223 13.9286 13.685L20.1906 19.946L19.4846 20.654ZM9.53862 14.73C10.8653 14.73 11.9853 14.2734 12.8986 13.36C13.8119 12.4467 14.2686 11.3264 14.2686 9.99904C14.2686 8.67171 13.8119 7.55171 12.8986 6.63905C11.9853 5.72638 10.8653 5.26971 9.53862 5.26905C8.21195 5.26838 7.09162 5.72505 6.17762 6.63905C5.26362 7.55305 4.80695 8.67305 4.80762 9.99904C4.80828 11.325 5.26495 12.445 6.17762 13.359C7.09028 14.273 8.21028 14.7297 9.53762 14.729" fill="#5D6679"/>
</svg>
