<svg width="39" height="24" viewBox="0 0 39 24" fill="none" xmlns="http://www.w3.org/2000/svg">
<path d="M23.6522 20.3555H12.3594V21.3998H23.6522V20.3555Z" fill="#E67809"/>
<path opacity="0.1" d="M12.3594 20.3555V20.7604L23.6522 21.0451V20.3555H12.3594Z" fill="black"/>
<path d="M36.2324 15.3592C35.4275 16.1466 34.4034 16.7048 33.2773 16.9697C32.1512 17.2346 30.9687 17.1956 29.8651 16.8571C29.5 16.7436 29.1462 16.5999 28.8079 16.4278C28.2984 16.168 27.8194 15.8583 27.3789 15.5038L28.9841 13.8749C29.2185 14.0696 29.4712 14.2439 29.739 14.3956C32.1637 15.7839 34.0275 14.1946 34.401 13.8247C36.1193 12.17 37.2007 8.00036 35.9172 6.16598C35.8348 6.03202 35.4323 5.78236 33.6541 5.87675C33.3308 5.89806 32.9526 5.92089 32.5226 5.96656C32.189 6.0202 31.8502 6.03858 31.5123 6.02137L31.6109 4.92683L31.6335 3.82316C31.7467 3.82316 31.9277 3.7988 32.1637 3.7714C32.9955 3.67058 33.8342 3.62987 34.6725 3.64961C35.9657 3.70442 37.2848 4.02258 37.988 5.03644C40.0732 8.02777 38.3856 13.2828 36.2324 15.3592Z" fill="#E67809"/>
<g opacity="0.1">
<path d="M36.2324 15.3592C35.4275 16.1466 34.4034 16.7048 33.2773 16.9697C32.1512 17.2346 30.9687 17.1956 29.8651 16.8571C29.5 16.7436 29.1462 16.5999 28.8079 16.4278C28.2984 16.168 27.8194 15.8583 27.3789 15.5038L28.9841 13.8749C29.2185 14.0696 29.4712 14.2439 29.739 14.3956C32.1637 15.7839 34.0275 14.1946 34.401 13.8247C36.1193 12.17 37.2007 8.00036 35.9172 6.16598C35.8348 6.03202 35.4323 5.78236 33.6541 5.87675C33.3308 5.89806 32.9526 5.92089 32.5226 5.96656C32.189 6.0202 31.8502 6.03858 31.5123 6.02137L31.6109 4.92683L31.6335 3.82316C31.7467 3.82316 31.9277 3.7988 32.1637 3.7714C32.9955 3.67058 33.8342 3.62987 34.6725 3.64961C35.9657 3.70442 37.2848 4.02258 37.988 5.03644C40.0732 8.02777 38.3856 13.2828 36.2324 15.3592Z" fill="black"/>
</g>
<path d="M2.98242 0.367676C2.98242 0.367676 3.90059 7.29264 5.3716 12.1595C6.51284 15.9332 8.33948 19.6187 12.3144 20.3906C13.7693 20.6737 15.8028 20.5976 18.0061 20.5976C20.2094 20.5976 22.2381 20.6737 23.6978 20.3906C27.6727 19.6203 29.501 15.9332 30.6487 12.1595C32.1213 7.28808 33.0379 0.367676 33.0379 0.367676H2.98242Z" fill="#E67809"/>
<path opacity="0.3" d="M14.4718 20.5915C13.7482 20.5819 13.0268 20.5147 12.3154 20.3906C8.34039 19.6203 6.51376 15.9332 5.36443 12.1595C3.8918 7.28808 2.97363 0.367676 2.97363 0.367676H6.40222C6.60913 3.70152 7.86191 18.748 14.4718 20.5915Z" fill="white"/>
<path opacity="0.1" d="M20.3136 20.3449C19.6153 20.4773 18.0068 20.5976 18.0068 20.5976C20.2101 20.5976 22.2372 20.6737 23.6985 20.3906C27.6735 19.6203 29.5017 15.8876 30.6494 12.1138C32.1204 7.24241 33.0386 0.367676 33.0386 0.367676H20.3103C20.3103 0.367676 27.4148 1.72862 28.0517 4.06992C29.0717 7.82849 25.4346 19.366 20.3136 20.3449Z" fill="black"/>
<path d="M30.8977 23.1975H5.1162L0 20.7009H36.0139L30.8977 23.1975Z" fill="#E67809"/>
<path d="M30.8927 23.1975H5.10156V23.9998H30.8927V23.1975Z" fill="#E67809"/>
<path opacity="0.1" d="M5.10156 23.1975V23.5081L30.8927 23.7257V23.1975H5.10156Z" fill="black"/>
</svg>
