<svg width="170" height="75" viewBox="0 0 170 75" fill="none" xmlns="http://www.w3.org/2000/svg">
<rect width="170" height="70" fill="white"/>
<g filter="url(#filter0_d_762_616)">
<path d="M78.328 26.992L78.544 31.12C78.192 31.712 77.72 32.248 77.128 32.728C76.536 33.208 75.8 33.6 74.92 33.904C74.04 34.192 73 34.336 71.8 34.336C69.848 34.32 68.136 33.968 66.664 33.28C65.208 32.576 64.08 31.576 63.28 30.28C62.48 28.984 62.08 27.416 62.08 25.576C62.08 23.784 62.472 22.24 63.256 20.944C64.04 19.632 65.16 18.624 66.616 17.92C68.088 17.216 69.84 16.864 71.872 16.864C73.152 16.864 74.296 16.992 75.304 17.248C76.328 17.504 77.184 17.816 77.872 18.184L77.896 22.288H77.68C77.248 20.704 76.544 19.576 75.568 18.904C74.592 18.216 73.448 17.872 72.136 17.872C70.856 17.872 69.76 18.184 68.848 18.808C67.936 19.432 67.232 20.312 66.736 21.448C66.24 22.584 65.992 23.944 65.992 25.528C65.992 27.112 66.224 28.48 66.688 29.632C67.168 30.784 67.84 31.68 68.704 32.32C69.584 32.96 70.616 33.296 71.8 33.328C73.032 33.328 74.072 33.128 74.92 32.728C75.768 32.328 76.448 31.664 76.96 30.736C77.488 29.808 77.88 28.56 78.136 26.992H78.328ZM87.3826 18.952L94.4866 33.88H90.4306L85.9666 23.344L87.3826 18.952ZM82.8706 32.416C82.6946 32.848 82.7186 33.184 82.9426 33.424C83.1666 33.648 83.4146 33.76 83.6866 33.76H83.8786V34H79.0786V33.76C79.0786 33.76 79.1106 33.76 79.1746 33.76C79.2386 33.76 79.2706 33.76 79.2706 33.76C79.5906 33.76 79.9266 33.664 80.2786 33.472C80.6306 33.264 80.9186 32.912 81.1426 32.416H82.8706ZM87.3826 18.952L87.4306 21.832L82.2226 33.928H80.4466L86.0626 21.856C86.0946 21.76 86.1666 21.592 86.2786 21.352C86.3906 21.096 86.5106 20.816 86.6386 20.512C86.7666 20.192 86.8866 19.896 86.9986 19.624C87.1106 19.336 87.1746 19.112 87.1906 18.952H87.3826ZM89.4706 29.296V30.232H83.3506V29.296H89.4706ZM89.8306 32.416H93.7906C94.0306 32.912 94.3266 33.264 94.6786 33.472C95.0306 33.664 95.3666 33.76 95.6866 33.76C95.6866 33.76 95.7186 33.76 95.7826 33.76C95.8466 33.76 95.8786 33.76 95.8786 33.76V34H88.8226V33.76H89.0146C89.2866 33.76 89.5346 33.648 89.7586 33.424C89.9826 33.184 90.0066 32.848 89.8306 32.416ZM101.052 19.6V34H97.5959V19.6H101.052ZM105.876 26.392V27.352H101.004V26.392H105.876ZM106.98 19.6V20.56H101.004V19.6H106.98ZM105.876 27.304V29.416H105.636V29.224C105.636 28.696 105.468 28.256 105.132 27.904C104.812 27.552 104.364 27.368 103.788 27.352V27.304H105.876ZM105.876 24.328V26.44H103.788V26.392C104.364 26.376 104.812 26.192 105.132 25.84C105.468 25.472 105.636 25.024 105.636 24.496V24.328H105.876ZM106.98 20.488V23.08H106.716V22.84C106.716 22.152 106.524 21.608 106.14 21.208C105.772 20.792 105.228 20.576 104.508 20.56V20.488H106.98ZM106.98 19.24V19.816L104.436 19.6C104.74 19.6 105.06 19.584 105.396 19.552C105.748 19.504 106.068 19.456 106.356 19.408C106.644 19.344 106.852 19.288 106.98 19.24ZM97.6679 32.488L97.7639 34H95.9879V33.76C95.9879 33.76 96.0359 33.76 96.1319 33.76C96.2279 33.76 96.2839 33.76 96.2999 33.76C96.6519 33.76 96.9559 33.64 97.2119 33.4C97.4679 33.144 97.5959 32.84 97.5959 32.488H97.6679ZM97.6679 21.112H97.5959C97.5959 20.744 97.4679 20.44 97.2119 20.2C96.9559 19.96 96.6519 19.84 96.2999 19.84C96.2839 19.84 96.2279 19.84 96.1319 19.84C96.0359 19.84 95.9879 19.84 95.9879 19.84V19.6H97.7639L97.6679 21.112ZM101.004 32.488H101.052C101.068 32.84 101.196 33.144 101.436 33.4C101.692 33.64 102.004 33.76 102.372 33.76C102.372 33.76 102.42 33.76 102.516 33.76C102.612 33.76 102.668 33.76 102.684 33.76L102.66 34H100.908L101.004 32.488ZM113.896 19.6V34H110.44V19.6H113.896ZM118.72 26.392V27.352H113.848V26.392H118.72ZM119.824 19.6V20.56H113.848V19.6H119.824ZM118.72 27.304V29.416H118.48V29.224C118.48 28.696 118.312 28.256 117.976 27.904C117.656 27.552 117.208 27.368 116.632 27.352V27.304H118.72ZM118.72 24.328V26.44H116.632V26.392C117.208 26.376 117.656 26.192 117.976 25.84C118.312 25.472 118.48 25.024 118.48 24.496V24.328H118.72ZM119.824 20.488V23.08H119.56V22.84C119.56 22.152 119.368 21.608 118.984 21.208C118.616 20.792 118.072 20.576 117.352 20.56V20.488H119.824ZM119.824 19.24V19.816L117.28 19.6C117.584 19.6 117.904 19.584 118.24 19.552C118.592 19.504 118.912 19.456 119.2 19.408C119.488 19.344 119.696 19.288 119.824 19.24ZM110.512 32.488L110.608 34H108.832V33.76C108.832 33.76 108.88 33.76 108.976 33.76C109.072 33.76 109.128 33.76 109.144 33.76C109.496 33.76 109.8 33.64 110.056 33.4C110.312 33.144 110.44 32.84 110.44 32.488H110.512ZM110.512 21.112H110.44C110.44 20.744 110.312 20.44 110.056 20.2C109.8 19.96 109.496 19.84 109.144 19.84C109.128 19.84 109.072 19.84 108.976 19.84C108.88 19.84 108.832 19.84 108.832 19.84V19.6H110.608L110.512 21.112ZM113.848 32.488H113.896C113.912 32.84 114.04 33.144 114.28 33.4C114.536 33.64 114.848 33.76 115.216 33.76C115.216 33.76 115.264 33.76 115.36 33.76C115.456 33.76 115.512 33.76 115.528 33.76L115.504 34H113.752L113.848 32.488ZM126.739 19.6V34H123.283V19.6H126.739ZM132.355 33.04L132.907 34H126.691V33.04H132.355ZM131.539 26.392V27.352H126.691V26.392H131.539ZM132.619 19.6V20.56H126.691V19.6H132.619ZM133.891 29.584L132.979 34H128.827L129.571 33.04C130.259 33.04 130.867 32.904 131.395 32.632C131.939 32.344 132.403 31.944 132.787 31.432C133.171 30.904 133.467 30.288 133.675 29.584H133.891ZM131.539 27.304V29.416H131.299V29.224C131.299 28.696 131.131 28.256 130.795 27.904C130.475 27.552 130.035 27.368 129.475 27.352V27.304H131.539ZM131.539 24.328V26.44H129.475V26.392C130.035 26.376 130.475 26.192 130.795 25.84C131.131 25.472 131.299 25.024 131.299 24.496V24.328H131.539ZM132.619 20.512V23.056H132.379V22.84C132.379 22.136 132.187 21.584 131.803 21.184C131.435 20.784 130.899 20.576 130.195 20.56V20.512H132.619ZM132.619 19.24V19.816L130.099 19.6C130.563 19.6 131.051 19.56 131.563 19.48C132.075 19.384 132.427 19.304 132.619 19.24ZM123.331 32.488L123.451 34H121.675V33.76C121.675 33.76 121.723 33.76 121.819 33.76C121.915 33.76 121.971 33.76 121.987 33.76C122.339 33.76 122.635 33.64 122.875 33.4C123.131 33.144 123.267 32.84 123.283 32.488H123.331ZM123.331 21.112H123.283C123.267 20.744 123.131 20.44 122.875 20.2C122.635 19.96 122.339 19.84 121.987 19.84C121.971 19.84 121.915 19.84 121.819 19.84C121.723 19.84 121.675 19.84 121.675 19.84V19.6H123.451L123.331 21.112ZM127.435 17.944C127.707 17.48 128.043 17 128.443 16.504C128.843 16.008 129.259 15.544 129.691 15.112C130.139 14.68 130.531 14.304 130.867 13.984C131.299 14.224 131.643 14.504 131.899 14.824C132.155 15.144 132.363 15.52 132.523 15.952C132.043 16.256 131.515 16.552 130.939 16.84C130.379 17.112 129.811 17.36 129.235 17.584C128.675 17.808 128.131 17.984 127.603 18.112L127.435 17.944ZM69.496 41.72L77.344 58.856H73.024L68.032 46.352L69.496 41.72ZM64.336 57.248C64.208 57.568 64.184 57.84 64.264 58.064C64.344 58.288 64.48 58.464 64.672 58.592C64.864 58.704 65.056 58.76 65.248 58.76H65.464V59H60.328V58.76C60.328 58.76 60.368 58.76 60.448 58.76C60.512 58.76 60.544 58.76 60.544 58.76C60.912 58.76 61.288 58.648 61.672 58.424C62.072 58.184 62.4 57.792 62.656 57.248H64.336ZM69.496 41.72L69.592 44.648L63.64 58.928H61.888L68.104 44.864C68.152 44.768 68.232 44.592 68.344 44.336C68.472 44.064 68.6 43.76 68.728 43.424C68.872 43.088 69 42.768 69.112 42.464C69.224 42.144 69.28 41.896 69.28 41.72H69.496ZM72.016 53.288V54.296H64.96V53.288H72.016ZM72.376 57.248H76.576C76.848 57.792 77.176 58.184 77.56 58.424C77.944 58.648 78.32 58.76 78.688 58.76C78.688 58.76 78.72 58.76 78.784 58.76C78.848 58.76 78.88 58.76 78.88 58.76V59H71.248V58.76H71.464C71.784 58.76 72.064 58.632 72.304 58.376C72.544 58.104 72.568 57.728 72.376 57.248ZM83.9871 44.6H86.5791C87.2351 44.6 87.8751 44.672 88.4991 44.816C89.1231 44.944 89.6831 45.16 90.1791 45.464C90.6751 45.752 91.0671 46.152 91.3551 46.664C91.6591 47.16 91.8111 47.784 91.8111 48.536C91.8111 49.096 91.6911 49.656 91.4511 50.216C91.2271 50.76 90.8671 51.232 90.3711 51.632C89.8911 52.032 89.2591 52.296 88.4751 52.424C88.9391 52.568 89.3791 52.848 89.7951 53.264C90.2271 53.68 90.5631 54.072 90.8031 54.44C90.8671 54.568 90.9791 54.776 91.1391 55.064C91.2991 55.336 91.4991 55.656 91.7391 56.024C91.9951 56.376 92.2591 56.744 92.5311 57.128C92.8511 57.56 93.1311 57.896 93.3711 58.136C93.6111 58.36 93.8591 58.52 94.1151 58.616C94.3711 58.712 94.6671 58.76 95.0031 58.76V59H92.9871C92.1231 59 91.3871 58.936 90.7791 58.808C90.1871 58.68 89.6671 58.448 89.2191 58.112C88.7871 57.76 88.3871 57.288 88.0191 56.696C87.8751 56.488 87.7231 56.24 87.5631 55.952C87.4031 55.648 87.2431 55.344 87.0831 55.04C86.9231 54.736 86.7791 54.44 86.6511 54.152C86.5391 53.864 86.4591 53.624 86.4111 53.432C86.2031 52.92 85.9631 52.552 85.6911 52.328C85.4351 52.088 85.1951 51.968 84.9711 51.968V51.752C84.9711 51.752 85.0271 51.752 85.1391 51.752C85.2511 51.752 85.3951 51.752 85.5711 51.752C85.9071 51.752 86.2351 51.696 86.5551 51.584C86.8911 51.456 87.1951 51.224 87.4671 50.888C87.7391 50.536 87.9391 50.024 88.0671 49.352C88.0991 49.256 88.1231 49.12 88.1391 48.944C88.1711 48.768 88.1791 48.568 88.1631 48.344C88.1311 47.752 88.0191 47.28 87.8271 46.928C87.6511 46.56 87.4271 46.288 87.1551 46.112C86.8831 45.92 86.6031 45.792 86.3151 45.728C86.0431 45.648 85.8031 45.608 85.5951 45.608C85.2911 45.592 85.0111 45.592 84.7551 45.608C84.5151 45.608 84.3311 45.6 84.2031 45.584C84.1871 45.584 84.1631 45.504 84.1311 45.344C84.0991 45.168 84.0671 45 84.0351 44.84C84.0031 44.68 83.9871 44.6 83.9871 44.6ZM84.2271 44.6V59H80.7471V44.6H84.2271ZM80.8191 57.488L80.9151 59H79.1871V58.76C79.2031 58.76 79.2431 58.76 79.3071 58.76C79.3871 58.76 79.4431 58.76 79.4751 58.76C79.8271 58.76 80.1231 58.64 80.3631 58.4C80.6191 58.144 80.7551 57.84 80.7711 57.488H80.8191ZM80.8191 46.088H80.7711C80.7551 45.72 80.6191 45.424 80.3631 45.2C80.1231 44.96 79.8351 44.84 79.4991 44.84C79.4511 44.84 79.3871 44.84 79.3071 44.84C79.2431 44.84 79.2031 44.84 79.1871 44.84V44.6H80.9151L80.8191 46.088ZM84.1791 57.488H84.2271C84.2271 57.888 84.3631 58.2 84.6351 58.424C84.9231 58.648 85.2271 58.76 85.5471 58.76C85.5471 58.76 85.5791 58.76 85.6431 58.76C85.7071 58.76 85.7551 58.76 85.7871 58.76V59H84.0591L84.1791 57.488ZM102.101 43.952L109.205 58.88H105.149L100.685 48.344L102.101 43.952ZM97.5893 57.416C97.4133 57.848 97.4373 58.184 97.6613 58.424C97.8853 58.648 98.1333 58.76 98.4053 58.76H98.5973V59H93.7973V58.76C93.7973 58.76 93.8293 58.76 93.8933 58.76C93.9573 58.76 93.9893 58.76 93.9893 58.76C94.3093 58.76 94.6453 58.664 94.9973 58.472C95.3493 58.264 95.6373 57.912 95.8613 57.416H97.5893ZM102.101 43.952L102.149 46.832L96.9413 58.928H95.1653L100.781 46.856C100.813 46.76 100.885 46.592 100.997 46.352C101.109 46.096 101.229 45.816 101.357 45.512C101.485 45.192 101.605 44.896 101.717 44.624C101.829 44.336 101.893 44.112 101.909 43.952H102.101ZM104.189 54.296V55.232H98.0693V54.296H104.189ZM104.549 57.416H108.509C108.749 57.912 109.045 58.264 109.397 58.472C109.749 58.664 110.085 58.76 110.405 58.76C110.405 58.76 110.437 58.76 110.501 58.76C110.565 58.76 110.597 58.76 110.597 58.76V59H103.541V58.76H103.733C104.005 58.76 104.253 58.648 104.477 58.424C104.701 58.184 104.725 57.848 104.549 57.416ZM113.227 44.6H117.211C117.835 44.6 118.467 44.648 119.107 44.744C119.747 44.84 120.331 45.016 120.859 45.272C121.387 45.528 121.811 45.888 122.131 46.352C122.451 46.816 122.611 47.424 122.611 48.176C122.611 48.784 122.483 49.304 122.227 49.736C121.971 50.168 121.643 50.504 121.243 50.744C120.843 50.984 120.419 51.12 119.971 51.152C120.675 51.2 121.307 51.384 121.867 51.704C122.427 52.024 122.875 52.456 123.211 53C123.563 53.528 123.739 54.16 123.739 54.896C123.739 55.648 123.579 56.288 123.259 56.816C122.939 57.328 122.499 57.752 121.939 58.088C121.379 58.408 120.731 58.64 119.995 58.784C119.275 58.928 118.515 59 117.715 59H115.555C115.555 59 115.555 58.92 115.555 58.76C115.555 58.6 115.555 58.44 115.555 58.28C115.555 58.12 115.555 58.04 115.555 58.04H116.707C117.283 58.04 117.803 57.936 118.267 57.728C118.747 57.504 119.131 57.144 119.419 56.648C119.707 56.152 119.851 55.496 119.851 54.68C119.851 54.12 119.763 53.632 119.587 53.216C119.427 52.784 119.195 52.44 118.891 52.184C118.587 51.912 118.227 51.712 117.811 51.584C117.395 51.456 116.939 51.392 116.443 51.392V51.176C116.795 51.176 117.131 51.128 117.451 51.032C117.771 50.92 118.043 50.76 118.267 50.552C118.507 50.328 118.691 50.04 118.819 49.688C118.963 49.336 119.035 48.912 119.035 48.416C119.035 47.344 118.787 46.6 118.291 46.184C117.795 45.752 117.171 45.536 116.419 45.536H113.443C113.443 45.52 113.419 45.44 113.371 45.296C113.339 45.136 113.307 44.984 113.275 44.84C113.243 44.68 113.227 44.6 113.227 44.6ZM115.723 44.6V59H112.315V44.6H115.723ZM112.387 57.488V59H110.755V58.76C110.771 58.76 110.811 58.76 110.875 58.76C110.955 58.76 111.003 58.76 111.019 58.76C111.403 58.76 111.715 58.64 111.955 58.4C112.211 58.144 112.331 57.84 112.315 57.488H112.387ZM112.387 46.112H112.315C112.331 45.728 112.211 45.424 111.955 45.2C111.715 44.96 111.403 44.84 111.019 44.84C111.003 44.84 110.955 44.84 110.875 44.84C110.811 44.84 110.771 44.84 110.755 44.84V44.6H112.387V46.112ZM130.327 44.6V59H126.871V44.6H130.327ZM126.943 57.488V59H125.191V58.76C125.191 58.76 125.239 58.76 125.335 58.76C125.431 58.76 125.487 58.76 125.503 58.76C125.871 58.76 126.191 58.64 126.463 58.4C126.735 58.144 126.871 57.84 126.871 57.488H126.943ZM130.279 57.488H130.327C130.343 57.84 130.479 58.144 130.735 58.4C131.007 58.64 131.335 58.76 131.719 58.76C131.719 58.76 131.759 58.76 131.839 58.76C131.935 58.76 131.991 58.76 132.007 58.76V59H130.279V57.488ZM130.279 46.112V44.6H132.007L131.983 44.84C131.983 44.84 131.943 44.84 131.863 44.84C131.783 44.84 131.735 44.84 131.719 44.84C131.335 44.84 131.007 44.96 130.735 45.2C130.479 45.44 130.343 45.744 130.327 46.112H130.279ZM126.943 46.112H126.871C126.871 45.744 126.735 45.44 126.463 45.2C126.191 44.96 125.863 44.84 125.479 44.84C125.479 44.84 125.431 44.84 125.335 44.84C125.239 44.84 125.191 44.84 125.191 44.84V44.6H126.943V46.112ZM147.818 52.976L148.082 56.6C147.778 57.112 147.354 57.576 146.81 57.992C146.266 58.392 145.602 58.712 144.818 58.952C144.034 59.192 143.122 59.312 142.082 59.312C140.29 59.296 138.746 58.992 137.45 58.4C136.154 57.808 135.154 56.96 134.45 55.856C133.762 54.736 133.418 53.376 133.418 51.776C133.418 50.208 133.762 48.872 134.45 47.768C135.138 46.648 136.13 45.792 137.426 45.2C138.722 44.592 140.274 44.288 142.082 44.288C143.17 44.288 144.178 44.392 145.106 44.6C146.05 44.808 146.834 45.072 147.458 45.392L147.482 49.208H147.29C146.89 47.736 146.258 46.704 145.394 46.112C144.53 45.52 143.506 45.224 142.322 45.224C141.154 45.224 140.178 45.496 139.394 46.04C138.626 46.584 138.042 47.344 137.642 48.32C137.258 49.296 137.066 50.44 137.066 51.752C137.066 53.08 137.258 54.232 137.642 55.208C138.042 56.184 138.618 56.944 139.37 57.488C140.122 58.032 141.026 58.32 142.082 58.352C143.218 58.352 144.154 58.176 144.89 57.824C145.642 57.472 146.234 56.904 146.666 56.12C147.114 55.336 147.434 54.288 147.626 52.976H147.818ZM156.851 43.952L163.955 58.88H159.899L155.435 48.344L156.851 43.952ZM152.339 57.416C152.163 57.848 152.187 58.184 152.411 58.424C152.635 58.648 152.883 58.76 153.155 58.76H153.347V59H148.547V58.76C148.547 58.76 148.579 58.76 148.643 58.76C148.707 58.76 148.739 58.76 148.739 58.76C149.059 58.76 149.395 58.664 149.747 58.472C150.099 58.264 150.387 57.912 150.611 57.416H152.339ZM156.851 43.952L156.899 46.832L151.691 58.928H149.915L155.531 46.856C155.563 46.76 155.635 46.592 155.747 46.352C155.859 46.096 155.979 45.816 156.107 45.512C156.235 45.192 156.355 44.896 156.467 44.624C156.579 44.336 156.643 44.112 156.659 43.952H156.851ZM158.939 54.296V55.232H152.819V54.296H158.939ZM159.299 57.416H163.259C163.499 57.912 163.795 58.264 164.147 58.472C164.499 58.664 164.835 58.76 165.155 58.76C165.155 58.76 165.187 58.76 165.251 58.76C165.315 58.76 165.347 58.76 165.347 58.76V59H158.291V58.76H158.483C158.755 58.76 159.003 58.648 159.227 58.424C159.451 58.184 159.475 57.848 159.299 57.416Z" fill="black"/>
</g>
<g filter="url(#filter1_d_762_616)">
<path d="M32.5357 6.94941C32.1025 7.58573 30.701 8.87208 28.1389 8.28752C25.955 7.78972 25.6236 5.83204 25.8919 5.31445L32.5357 6.94941Z" fill="#EBEBEB"/>
<path opacity="0.5" d="M32.5357 6.94941C32.1025 7.58573 30.701 8.87208 28.1389 8.28752C25.955 7.78972 25.6236 5.83204 25.8919 5.31445L32.5357 6.94941Z" fill="#E67809"/>
<path d="M32.6109 6.5763C33.1799 6.0983 32.2084 4.70234 29.934 4.12843C27.6596 3.55453 26.111 4.41767 26.2871 4.95048C26.1725 4.9908 26.0718 5.05995 25.996 5.1504C25.9202 5.24085 25.8722 5.34914 25.8572 5.4635C25.8054 5.86386 26.4941 6.96906 28.9592 7.54449C31.3047 8.09252 32.3538 7.19131 32.5397 6.94927C32.5793 6.89551 32.606 6.8344 32.6183 6.77006C32.6306 6.70572 32.6281 6.63964 32.6109 6.5763Z" fill="#E67809"/>
<path opacity="0.3" d="M32.6108 6.57637C32.0418 6.70576 31.4793 6.55353 30.9588 6.39369C30.7016 6.30725 30.4506 6.20556 30.2071 6.08923C29.4748 5.73149 28.8541 5.23978 28.0313 4.9749C27.4709 4.77621 26.8549 4.76546 26.2871 4.94446C26.8437 4.86414 27.4131 4.93764 27.9262 5.15606C28.6828 5.46052 29.3051 5.96592 30.0568 6.30083C30.3183 6.41158 30.5885 6.50319 30.865 6.57485C31.4114 6.70424 32.0612 6.80624 32.606 6.57485L32.6108 6.57637Z" fill="black"/>
<path opacity="0.7" d="M32.4115 5.72098C32.2921 5.51145 32.1364 5.32213 31.9508 5.16077C31.5146 4.77988 30.9995 4.48808 30.4378 4.30371L30.1145 4.20476L29.7023 4.10734C29.5811 4.08602 29.4049 4.05862 29.282 4.03883C29.1107 4.02057 28.9393 4.00534 28.768 3.99316H28.422C28.1941 3.99316 27.9629 4.01143 27.7334 4.0297C28.0567 4.06167 28.4139 4.09364 28.7372 4.13778C29.2747 4.21392 29.8035 4.33726 30.3166 4.50618C31.1032 4.75585 31.8183 5.17254 32.4067 5.72403L32.4115 5.72098Z" fill="white"/>
<path opacity="0.7" d="M32.2752 6.72862C31.3202 6.82467 30.3605 6.59158 29.574 6.0725C28.8078 5.61581 27.9575 5.0145 26.9375 5.01907C27.4043 5.10625 27.8491 5.27621 28.2485 5.51991C28.6461 5.74521 29.0195 5.99943 29.4156 6.24148C29.6678 6.40494 29.9389 6.5408 30.2238 6.64641C30.8863 6.87034 31.6051 6.90111 32.2865 6.73471L32.2752 6.72862Z" fill="white"/>
<path d="M13.5244 42.3263C14.2599 42.6307 16.1835 42.9657 17.9698 41.1389C19.4941 39.5831 18.6164 37.7822 18.0862 37.4854L13.5244 42.3263Z" fill="#EBEBEB"/>
<path opacity="0.1" d="M13.5244 42.3263C14.2599 42.6307 16.1835 42.9657 17.9698 41.1389C19.4941 39.5831 18.6164 37.7822 18.0862 37.4854L13.5244 42.3263Z" fill="black"/>
<path d="M13.2488 42.046C12.4939 41.9456 12.4777 40.2756 14.0312 38.6102C15.5846 36.9448 17.3805 36.8519 17.5487 37.3923C17.6685 37.3656 17.7938 37.3703 17.9109 37.406C18.0281 37.4417 18.1326 37.507 18.213 37.5948C18.4927 37.8993 18.5719 39.1795 16.86 40.9439C15.2338 42.6184 13.8243 42.4281 13.5317 42.314C13.4666 42.2914 13.4076 42.2558 13.3587 42.2095C13.3099 42.1632 13.2723 42.1074 13.2488 42.046Z" fill="#EBEBEB"/>
<path opacity="0.3" d="M13.247 42.0462C13.7966 41.856 14.1765 41.4373 14.5127 41.0293C14.6766 40.8253 14.8267 40.6118 14.9621 40.39C15.3598 39.7095 15.5877 38.9742 16.1147 38.3242C16.4631 37.8655 16.969 37.5343 17.5469 37.3865C17.0366 37.6109 16.6065 37.97 16.3087 38.4201C15.8593 39.0686 15.6394 39.8145 15.2111 40.4859C15.0585 40.7161 14.8866 40.9345 14.697 41.139C14.3188 41.5332 13.8387 41.958 13.2422 42.0523L13.247 42.0462Z" fill="black"/>
<path opacity="0.7" d="M12.9038 41.2395C12.8799 41.0024 12.8979 40.7632 12.9571 40.5316C13.0945 39.9869 13.351 39.4751 13.7104 39.0291L13.9173 38.7794C14.0095 38.6805 14.1064 38.5815 14.2018 38.4841C14.2972 38.3867 14.42 38.2862 14.5122 38.2055C14.6415 38.102 14.7773 38 14.9115 37.9011L15.1943 37.7153C15.3864 37.5956 15.585 37.4854 15.7892 37.385C15.5387 37.5814 15.2606 37.793 15.0181 37.9939C14.6161 38.3384 14.2492 38.7176 13.9222 39.1265C13.4161 39.7468 13.0677 40.4681 12.9038 41.2349V41.2395Z" fill="white"/>
<path opacity="0.7" d="M13.6162 42.011C14.4698 41.5891 15.1315 40.8896 15.4784 40.0426C15.8454 39.2617 16.1961 38.3194 17.0513 37.7881C16.7135 38.1043 16.443 38.4784 16.2543 38.8902C16.0571 39.286 15.8971 39.6925 15.7112 40.1081C15.5984 40.3764 15.4536 40.6317 15.2796 40.8692C14.8607 41.402 14.281 41.8036 13.6162 42.0216V42.011Z" fill="white"/>
<path d="M35.1152 19.1885C35.7618 19.9223 37.6596 21.2878 40.4109 19.9223C42.7564 18.7577 42.6513 16.1058 42.2213 15.4878L35.1152 19.1885Z" fill="#EBEBEB"/>
<path opacity="0.5" d="M35.1152 19.1885C35.7618 19.9223 37.6596 21.2878 40.4109 19.9223C42.7564 18.7577 42.6513 16.1058 42.2213 15.4878L35.1152 19.1885Z" fill="#E67809"/>
<path d="M34.9401 18.7107C34.1787 18.216 34.6508 16.3344 37.0803 15.0496C39.5099 13.7648 41.7536 14.3569 41.6841 15.0983C41.8347 15.129 41.9729 15.1997 42.0823 15.3019C42.1917 15.4041 42.2678 15.5337 42.3016 15.6753C42.4633 16.1913 41.9508 17.8065 39.3063 19.1355C36.791 20.4035 35.3782 19.4658 35.1147 19.1887C34.9921 19.0572 34.9294 18.8855 34.9401 18.7107Z" fill="#E67809"/>
<path opacity="0.3" d="M34.9404 18.7104C35.6145 18.7485 36.2158 18.4166 36.7606 18.0847C37.0322 17.9123 37.2914 17.7231 37.5365 17.5184C38.2769 16.8775 38.8588 16.0859 39.722 15.5394C40.2846 15.1756 41.0152 14.964 41.6844 15.0934C41.0239 15.1214 40.3916 15.3536 39.8853 15.7541C39.1045 16.3295 38.5258 17.1394 37.758 17.7559C37.4915 17.9614 37.2071 18.1452 36.9077 18.3055C36.3209 18.6099 35.6145 18.89 34.9404 18.7058V18.7104Z" fill="black"/>
<path opacity="0.7" d="M34.7773 17.8614C34.8474 17.5625 34.9657 17.2755 35.1281 17.0104C35.481 16.4186 35.9617 15.9031 36.5393 15.4972L36.8626 15.2841C37.0016 15.2049 37.1439 15.1319 37.2845 15.0497C37.4252 14.9675 37.5949 14.9066 37.7226 14.8487C37.9036 14.7802 38.0863 14.7148 38.269 14.6539L38.6424 14.5549C38.8925 14.4954 39.1462 14.4502 39.4021 14.4194C39.0578 14.5473 38.6796 14.6813 38.3401 14.8244C37.7699 15.07 37.2282 15.3705 36.7236 15.721C35.9112 16.2849 35.2475 17.0172 34.7838 17.8614H34.7773Z" fill="white"/>
<path opacity="0.7" d="M35.3545 18.8446C35.9193 18.7879 36.4665 18.6258 36.9641 18.3678C37.4617 18.1099 37.8998 17.7612 38.2529 17.3421C39.0062 16.5612 39.8176 15.5747 40.975 15.3418C40.4577 15.5737 39.9954 15.9015 39.6156 16.3054C39.2228 16.6951 38.8623 17.1168 38.4759 17.5233C38.2371 17.792 37.9659 18.0336 37.6677 18.2433C36.9941 18.6878 36.1778 18.8987 35.3577 18.8401L35.3545 18.8446Z" fill="white"/>
<path d="M40.6991 31.6946C40.0331 32.2335 38.1968 33.1378 36.0565 31.5911C34.2315 30.2713 34.7342 28.0182 35.1982 27.5479L40.6991 31.6946Z" fill="#EBEBEB"/>
<path opacity="0.5" d="M40.6991 31.6946C40.0331 32.2335 38.1968 33.1378 36.0565 31.5911C34.2315 30.2713 34.7342 28.0182 35.1982 27.5479L40.6991 31.6946Z" fill="#E67809"/>
<path d="M40.9218 31.3169C41.6492 30.9973 41.5393 29.3242 39.6625 27.8902C37.7858 26.4562 35.7748 26.6526 35.7183 27.295C35.5849 27.3011 35.4561 27.3427 35.3468 27.4149C35.2376 27.4871 35.1522 27.587 35.1008 27.703C34.8858 28.1231 35.0684 29.5709 37.1214 31.0764C39.0757 32.5074 40.4303 31.9 40.6987 31.7006C40.8235 31.6051 40.9036 31.4674 40.9218 31.3169Z" fill="#E67809"/>
<path opacity="0.3" d="M40.9248 31.3169C40.3429 31.2544 39.8806 30.8876 39.47 30.5298C39.2657 30.3435 39.0735 30.1458 38.8945 29.9376C38.3627 29.2876 37.9877 28.5295 37.3346 27.948C37.1242 27.7445 36.8733 27.5821 36.5962 27.47C36.3191 27.358 36.0213 27.2985 35.7197 27.2949C36.2799 27.4101 36.784 27.6965 37.1536 28.1094C37.7323 28.7091 38.1024 29.4794 38.6617 30.1142C38.8589 30.3273 39.0752 30.5239 39.3083 30.7018C39.7642 31.0383 40.3251 31.3808 40.9248 31.3108V31.3169Z" fill="black"/>
<path opacity="0.7" d="M41.1943 30.6123C41.1825 30.3472 41.128 30.0855 41.0327 29.8359C40.8228 29.2815 40.4925 28.7745 40.0628 28.3471L39.8219 28.1218C39.7153 28.0335 39.6069 27.9467 39.4986 27.8615C39.3903 27.7762 39.2545 27.697 39.1543 27.6301C39.0099 27.5458 38.8644 27.4651 38.7179 27.388L38.414 27.251C38.2091 27.166 37.9991 27.0923 37.7852 27.0303C38.06 27.1825 38.3622 27.3545 38.6306 27.5235C39.0804 27.8122 39.497 28.1444 39.8737 28.5145C40.4811 29.1086 40.9352 29.8264 41.2008 30.6123H41.1943Z" fill="white"/>
<path opacity="0.7" d="M40.5459 31.3733C40.0723 31.2463 39.6302 31.0319 39.2454 30.7426C38.8605 30.4533 38.5404 30.0949 38.3039 29.6882C37.7801 28.9163 37.2418 27.9603 36.2881 27.6011C36.6944 27.8709 37.0386 28.2152 37.3 28.6134C37.5764 29.0016 37.8173 29.4111 38.084 29.816C38.2475 30.0789 38.4428 30.3231 38.6659 30.5437C39.1724 31.0168 39.8373 31.31 40.5475 31.3733H40.5459Z" fill="white"/>
<path opacity="0.6" d="M24.3012 43.8242C24.3012 43.8242 12.4297 38.6727 12.4297 31.7691C12.4297 24.8654 27.8252 20.4218 27.8252 15.0237C27.8252 9.62561 21.1119 6.45312 21.1119 6.45312C21.1119 6.45312 31.7161 9.86613 31.7161 16.6906C31.7161 23.5151 21.5661 28.1399 20.5962 32.4815C19.2481 38.5144 24.3012 43.8242 24.3012 43.8242Z" fill="#EBEBEB"/>
<path opacity="0.6" d="M23.7133 43.8244C23.7133 43.8244 35.5849 39.7751 35.5849 34.3465C35.5849 28.918 20.1878 25.4243 20.1878 21.1816C20.1878 16.939 26.9027 14.4424 26.9027 14.4424C26.9027 14.4424 16.2969 17.1262 16.2969 22.4923C16.2969 27.8585 27.9583 31.5424 28.7859 35.9069C29.6039 40.1815 23.7133 43.8244 23.7133 43.8244Z" fill="#EBEBEB"/>
<path d="M29.6522 63.3555H18.3594V64.3998H29.6522V63.3555Z" fill="#E67809"/>
<path opacity="0.1" d="M18.3594 63.3555V63.7604L29.6522 64.0451V63.3555H18.3594Z" fill="black"/>
<path d="M42.2324 58.3592C41.4275 59.1466 40.4034 59.7048 39.2773 59.9697C38.1512 60.2346 36.9687 60.1956 35.8651 59.8571C35.5 59.7436 35.1462 59.5999 34.8079 59.4278C34.2984 59.168 33.8194 58.8583 33.3789 58.5038L34.9841 56.8749C35.2185 57.0696 35.4712 57.2439 35.739 57.3956C38.1637 58.7839 40.0275 57.1946 40.401 56.8247C42.1193 55.17 43.2007 51.0004 41.9172 49.166C41.8348 49.032 41.4323 48.7824 39.6541 48.8767C39.3308 48.8981 38.9526 48.9209 38.5226 48.9666C38.189 49.0202 37.8502 49.0386 37.5123 49.0214L37.6109 47.9268L37.6335 46.8232C37.7467 46.8232 37.9277 46.7988 38.1637 46.7714C38.9955 46.6706 39.8342 46.6299 40.6725 46.6496C41.9657 46.7044 43.2848 47.0226 43.988 48.0364C46.0732 51.0278 44.3856 56.2828 42.2324 58.3592Z" fill="#E67809"/>
<g opacity="0.1">
<path d="M42.2324 58.3592C41.4275 59.1466 40.4034 59.7048 39.2773 59.9697C38.1512 60.2346 36.9687 60.1956 35.8651 59.8571C35.5 59.7436 35.1462 59.5999 34.8079 59.4278C34.2984 59.168 33.8194 58.8583 33.3789 58.5038L34.9841 56.8749C35.2185 57.0696 35.4712 57.2439 35.739 57.3956C38.1637 58.7839 40.0275 57.1946 40.401 56.8247C42.1193 55.17 43.2007 51.0004 41.9172 49.166C41.8348 49.032 41.4323 48.7824 39.6541 48.8767C39.3308 48.8981 38.9526 48.9209 38.5226 48.9666C38.189 49.0202 37.8502 49.0386 37.5123 49.0214L37.6109 47.9268L37.6335 46.8232C37.7467 46.8232 37.9277 46.7988 38.1637 46.7714C38.9955 46.6706 39.8342 46.6299 40.6725 46.6496C41.9657 46.7044 43.2848 47.0226 43.988 48.0364C46.0732 51.0278 44.3856 56.2828 42.2324 58.3592Z" fill="black"/>
</g>
<path d="M8.98242 43.3677C8.98242 43.3677 9.90059 50.2926 11.3716 55.1595C12.5128 58.9332 14.3395 62.6187 18.3144 63.3906C19.7693 63.6737 21.8028 63.5976 24.0061 63.5976C26.2094 63.5976 28.2381 63.6737 29.6978 63.3906C33.6727 62.6203 35.501 58.9332 36.6487 55.1595C38.1213 50.2881 39.0379 43.3677 39.0379 43.3677H8.98242Z" fill="#E67809"/>
<path opacity="0.3" d="M20.4718 63.5915C19.7482 63.5819 19.0268 63.5147 18.3154 63.3906C14.3404 62.6203 12.5138 58.9332 11.3644 55.1595C9.8918 50.2881 8.97363 43.3677 8.97363 43.3677H12.4022C12.6091 46.7015 13.8619 61.748 20.4718 63.5915Z" fill="white"/>
<path opacity="0.1" d="M26.3136 63.3449C25.6153 63.4773 24.0068 63.5976 24.0068 63.5976C26.2101 63.5976 28.2372 63.6737 29.6985 63.3906C33.6735 62.6203 35.5017 58.8876 36.6494 55.1138C38.1204 50.2424 39.0386 43.3677 39.0386 43.3677H26.3103C26.3103 43.3677 33.4148 44.7286 34.0517 47.0699C35.0717 50.8285 31.4346 62.366 26.3136 63.3449Z" fill="black"/>
<path d="M36.8977 66.1975H11.1162L6 63.7009H42.0139L36.8977 66.1975Z" fill="#E67809"/>
<path d="M36.8927 66.1975H11.1016V66.9998H36.8927V66.1975Z" fill="#E67809"/>
<path opacity="0.1" d="M11.1016 66.1975V66.5081L36.8927 66.7257V66.1975H11.1016Z" fill="black"/>
<path d="M18.1153 62.3783C17.7079 62.9751 16.3905 64.1853 13.9803 63.6358C11.9274 63.1684 11.6154 61.328 11.8676 60.8408L18.1153 62.3783Z" fill="#E67809"/>
<path opacity="0.8" d="M18.1153 62.3783C17.7079 62.9751 16.3905 64.1853 13.9803 63.6358C11.9274 63.1684 11.6154 61.328 11.8676 60.8408L18.1153 62.3783Z" fill="black"/>
<path d="M18.1828 62.0249C18.7195 61.5682 17.8045 60.2621 15.6675 59.7217C13.5305 59.1813 12.0741 59.9957 12.239 60.495C12.1302 60.5328 12.0346 60.5982 11.9628 60.6839C11.8909 60.7696 11.8455 60.8722 11.8316 60.9806C11.7831 61.3582 12.4297 62.3948 14.7413 62.9368C16.9462 63.4513 17.9387 62.6049 18.1084 62.3781C18.1483 62.3283 18.1756 62.2707 18.1885 62.2095C18.2014 62.1484 18.1994 62.0853 18.1828 62.0249Z" fill="#E67809"/>
<g opacity="0.7">
<path d="M18.1828 62.0249C18.7195 61.5682 17.8045 60.2621 15.6675 59.7217C13.5305 59.1813 12.0741 59.9957 12.239 60.495C12.1302 60.5328 12.0346 60.5982 11.9628 60.6839C11.8909 60.7696 11.8455 60.8722 11.8316 60.9806C11.7831 61.3582 12.4297 62.3948 14.7413 62.9368C16.9462 63.4513 17.9387 62.6049 18.1084 62.3781C18.1483 62.3283 18.1756 62.2707 18.1885 62.2095C18.2014 62.1484 18.1994 62.0853 18.1828 62.0249Z" fill="black"/>
</g>
<path opacity="0.3" d="M18.1831 62.0249C17.648 62.1452 17.1178 62.0021 16.6313 61.8514C16.3898 61.7726 16.1539 61.6796 15.9249 61.5728C15.2362 61.2364 14.6511 60.7736 13.88 60.5239C13.3528 60.3371 12.7735 60.3269 12.2393 60.495C12.7624 60.4197 13.2976 60.489 13.7798 60.6944C14.491 60.9806 15.073 61.4556 15.7842 61.7707C16.0309 61.8754 16.286 61.9614 16.5472 62.028C17.0613 62.1498 17.6788 62.2457 18.1831 62.028V62.0249Z" fill="black"/>
<path opacity="0.1" d="M17.9971 61.2273C17.8854 61.03 17.7389 60.8519 17.5639 60.7006C17.1542 60.3422 16.6698 60.0679 16.1414 59.8953L15.8424 59.8025C15.7147 59.7705 15.5837 59.74 15.4544 59.7111C15.3251 59.6822 15.1747 59.6639 15.0584 59.6457C14.8967 59.6289 14.7351 59.6152 14.5734 59.603H14.2501C14.0351 59.603 13.8169 59.6198 13.6035 59.6365C13.909 59.667 14.2501 59.6974 14.5475 59.7385C15.053 59.811 15.5503 59.9272 16.0331 60.0856C16.7718 60.3198 17.4437 60.7104 17.9971 61.2273Z" fill="#E67809"/>
<path opacity="0.1" d="M17.8694 62.1757C16.9686 62.2672 16.0632 62.0458 15.3235 61.5531C14.6025 61.1222 13.8056 60.5575 12.8438 60.562C13.2827 60.6441 13.7012 60.8038 14.0771 61.0324C14.4505 61.2456 14.8013 61.4891 15.1731 61.7129C15.4093 61.8658 15.6631 61.9929 15.9296 62.092C16.5526 62.303 17.2286 62.3321 17.8694 62.1757Z" fill="#E67809"/>
<path d="M16.126 62.6598C16.653 63.2596 18.2016 64.3724 20.4452 63.2581C22.3592 62.3082 22.2735 60.1465 21.9227 59.6411L16.126 62.6598Z" fill="#E67809"/>
<path opacity="0.8" d="M16.126 62.6598C16.653 63.2596 18.2016 64.3724 20.4452 63.2581C22.3592 62.3082 22.2735 60.1465 21.9227 59.6411L16.126 62.6598Z" fill="black"/>
<path d="M15.9849 62.2701C15.3642 61.8666 15.7489 60.3322 17.7307 59.2833C19.7126 58.2344 21.5424 58.7185 21.4858 59.3229C21.6083 59.3484 21.7206 59.4062 21.8096 59.4895C21.8986 59.5727 21.9606 59.6781 21.9886 59.7933C22.1179 60.2149 21.7041 61.5287 19.5461 62.6156C17.4947 63.6508 16.3422 62.8851 16.1272 62.6598C16.027 62.5527 15.9758 62.4126 15.9849 62.2701Z" fill="#E67809"/>
<g opacity="0.7">
<path d="M15.9849 62.2703C15.3642 61.8669 15.7489 60.3324 17.7307 59.2835C19.7126 58.2347 21.5424 58.7188 21.4858 59.3231C21.6083 59.3487 21.7206 59.4065 21.8096 59.4897C21.8986 59.573 21.9606 59.6783 21.9886 59.7935C22.1179 60.2152 21.7041 61.5289 19.5461 62.6159C17.4947 63.651 16.3422 62.8853 16.1272 62.66C16.027 62.5529 15.9758 62.4128 15.9849 62.2703Z" fill="black"/>
</g>
<path opacity="0.3" d="M15.9843 62.27C16.5339 62.3005 17.0237 62.0295 17.4699 61.7601C17.6907 61.6207 17.9018 61.4681 18.1019 61.3034C18.7049 60.7812 19.1802 60.1342 19.8801 59.6943C20.341 59.3775 20.9166 59.2461 21.4804 59.3289C20.9421 59.3519 20.4268 59.5413 20.0143 59.8678C19.3757 60.3382 18.9037 60.9989 18.2781 61.5013C18.061 61.6688 17.829 61.8185 17.5847 61.9488C17.0997 62.1924 16.5275 62.4268 15.9795 62.2761L15.9843 62.27Z" fill="black"/>
<path opacity="0.1" d="M15.8516 61.5777C15.9081 61.3339 16.004 61.0998 16.1361 60.8835C16.4248 60.4009 16.8174 59.9804 17.2886 59.6489L17.5505 59.4754C17.662 59.4115 17.7784 59.346 17.8932 59.2836C18.008 59.2212 18.147 59.1679 18.2521 59.1207C18.3992 59.0644 18.5479 59.0111 18.6966 58.9609L19.0021 58.8802C19.206 58.8317 19.4127 58.7946 19.6212 58.769C19.34 58.8741 19.0312 58.9837 18.7548 59.1009C18.2887 59.3005 17.8461 59.5454 17.4341 59.8316C16.7714 60.2917 16.2299 60.8891 15.8516 61.5777Z" fill="#E67809"/>
<path opacity="0.1" d="M16.3184 62.3798C16.779 62.3333 17.2253 62.2008 17.631 61.9902C18.0368 61.7795 18.394 61.4949 18.6817 61.1529C19.2976 60.5181 19.9587 59.7112 20.9027 59.5225C20.4804 59.7108 20.1031 59.978 19.7938 60.308C19.4705 60.6261 19.1796 60.9702 18.8643 61.3051C18.6684 61.5245 18.446 61.7217 18.2016 61.8927C17.6525 62.2552 16.987 62.4274 16.3184 62.3798Z" fill="#E67809"/>
<path d="M39.9209 62.3463C39.4812 63.0039 38.0975 64.2964 35.718 63.4621C33.6893 62.7528 33.4808 60.5972 33.7588 60.0537L39.9209 62.3463Z" fill="#E67809"/>
<path opacity="0.8" d="M39.9209 62.3463C39.4812 63.0039 38.0975 64.2964 35.718 63.4621C33.6893 62.7528 33.4808 60.5972 33.7588 60.0537L39.9209 62.3463Z" fill="black"/>
<path d="M40.0122 61.9428C40.5715 61.4678 39.9799 59.9927 37.872 59.192C35.7641 58.3913 34.015 59.0931 34.1541 59.6852C34.0361 59.7257 33.9326 59.7968 33.8557 59.8903C33.7787 59.9837 33.7314 60.0958 33.7192 60.2135C33.6497 60.6458 34.2397 61.9002 36.5271 62.7177C38.7029 63.494 39.7423 62.5959 39.9217 62.3462C40.007 62.2282 40.0395 62.0833 40.0122 61.9428Z" fill="#E67809"/>
<g opacity="0.7">
<path d="M40.0122 61.9428C40.5715 61.4678 39.9799 59.9927 37.872 59.192C35.7641 58.3913 34.015 59.0931 34.1541 59.6852C34.0361 59.7257 33.9326 59.7968 33.8557 59.8903C33.7787 59.9837 33.7314 60.0958 33.7192 60.2135C33.6497 60.6458 34.2397 61.9002 36.5271 62.7177C38.7029 63.494 39.7423 62.5959 39.9217 62.3462C40.007 62.2282 40.0395 62.0833 40.0122 61.9428Z" fill="black"/>
</g>
<path opacity="0.3" d="M40.0134 61.9428C39.4719 62.0403 38.9482 61.8302 38.4713 61.6155C38.2321 61.503 38.001 61.3759 37.7795 61.235C37.1102 60.7889 36.5509 60.2059 35.7928 59.8542C35.2923 59.5959 34.7033 59.5351 34.1553 59.6853C34.6929 59.6434 35.2302 59.7691 35.6845 60.043C36.3796 60.4312 36.9389 61.0295 37.6243 61.4527C37.8623 61.593 38.1127 61.7137 38.3727 61.8134C38.8819 61.9961 39.4865 62.1575 40.0102 61.9428H40.0134Z" fill="black"/>
<path opacity="0.1" d="M40.0488 61.2394C39.958 61.0052 39.8305 60.785 39.6706 60.5863C39.3193 60.1419 38.8726 59.7721 38.3596 59.5009L38.0767 59.3609C37.9555 59.3091 37.8326 59.2604 37.7098 59.2086C37.5869 59.1569 37.443 59.1249 37.3331 59.0899C37.1795 59.0518 37.0244 59.0184 36.8692 58.9864L36.5556 58.9422C36.3469 58.9192 36.1369 58.9075 35.9268 58.9072C36.2193 58.9773 36.541 59.0488 36.8304 59.131C37.3199 59.2729 37.7924 59.4627 38.24 59.6973C38.9604 60.0728 39.5793 60.5994 40.0488 61.2364V61.2394Z" fill="#E67809"/>
<path opacity="0.1" d="M39.6913 62.0919C39.2269 62.1024 38.765 62.0256 38.3325 61.8658C37.9 61.7061 37.5058 61.4668 37.1728 61.1618C36.4761 60.6061 35.7099 59.8861 34.748 59.813C35.1925 59.9495 35.6032 60.169 35.9556 60.4584C36.316 60.7355 36.6539 61.0415 37.0128 61.3353C37.2368 61.5288 37.4842 61.6969 37.7499 61.8361C38.3454 62.1308 39.0311 62.2212 39.6897 62.0919H39.6913Z" fill="#E67809"/>
</g>
<defs>
<filter id="filter0_d_762_616" x="56.3281" y="13.9839" width="113.02" height="53.3281" filterUnits="userSpaceOnUse" color-interpolation-filters="sRGB">
<feFlood flood-opacity="0" result="BackgroundImageFix"/>
<feColorMatrix in="SourceAlpha" type="matrix" values="0 0 0 0 0 0 0 0 0 0 0 0 0 0 0 0 0 0 127 0" result="hardAlpha"/>
<feOffset dy="4"/>
<feGaussianBlur stdDeviation="2"/>
<feComposite in2="hardAlpha" operator="out"/>
<feColorMatrix type="matrix" values="0 0 0 0 0 0 0 0 0 0 0 0 0 0 0 0 0 0 0.25 0"/>
<feBlend mode="normal" in2="BackgroundImageFix" result="effect1_dropShadow_762_616"/>
<feBlend mode="normal" in="SourceGraphic" in2="effect1_dropShadow_762_616" result="shape"/>
</filter>
<filter id="filter1_d_762_616" x="2" y="2" width="48" height="73" filterUnits="userSpaceOnUse" color-interpolation-filters="sRGB">
<feFlood flood-opacity="0" result="BackgroundImageFix"/>
<feColorMatrix in="SourceAlpha" type="matrix" values="0 0 0 0 0 0 0 0 0 0 0 0 0 0 0 0 0 0 127 0" result="hardAlpha"/>
<feOffset dy="4"/>
<feGaussianBlur stdDeviation="2"/>
<feComposite in2="hardAlpha" operator="out"/>
<feColorMatrix type="matrix" values="0 0 0 0 0 0 0 0 0 0 0 0 0 0 0 0 0 0 0.25 0"/>
<feBlend mode="normal" in2="BackgroundImageFix" result="effect1_dropShadow_762_616"/>
<feBlend mode="normal" in="SourceGraphic" in2="effect1_dropShadow_762_616" result="shape"/>
</filter>
</defs>
</svg>
