<svg width="32" height="32" viewBox="0 0 32 32" fill="none" xmlns="http://www.w3.org/2000/svg">
<path d="M15.9997 3.33325C16.4969 3.33328 16.9762 3.51848 17.3442 3.85274C17.7123 4.18701 17.9426 4.64637 17.9903 5.14125L17.9997 5.33325V26.6666C17.9994 27.1802 17.8016 27.674 17.4471 28.0458C17.0927 28.4175 16.6088 28.6386 16.0958 28.6633C15.5828 28.688 15.0799 28.5143 14.6914 28.1784C14.3029 27.8424 14.0586 27.3698 14.009 26.8586L13.9997 26.6666V5.33325C13.9997 4.80282 14.2104 4.29411 14.5855 3.91904C14.9605 3.54397 15.4692 3.33325 15.9997 3.33325ZM10.6663 7.33325C11.1968 7.33325 11.7055 7.54397 12.0806 7.91904C12.4556 8.29411 12.6663 8.80282 12.6663 9.33325V22.6666C12.6663 23.197 12.4556 23.7057 12.0806 24.0808C11.7055 24.4559 11.1968 24.6666 10.6663 24.6666C10.1359 24.6666 9.6272 24.4559 9.25213 24.0808C8.87705 23.7057 8.66634 23.197 8.66634 22.6666V9.33325C8.66634 8.80282 8.87705 8.29411 9.25213 7.91904C9.6272 7.54397 10.1359 7.33325 10.6663 7.33325ZM21.333 7.33325C21.8634 7.33325 22.3721 7.54397 22.7472 7.91904C23.1223 8.29411 23.333 8.80282 23.333 9.33325V22.6666C23.333 23.197 23.1223 23.7057 22.7472 24.0808C22.3721 24.4559 21.8634 24.6666 21.333 24.6666C20.8026 24.6666 20.2939 24.4559 19.9188 24.0808C19.5437 23.7057 19.333 23.197 19.333 22.6666V9.33325C19.333 8.80282 19.5437 8.29411 19.9188 7.91904C20.2939 7.54397 20.8026 7.33325 21.333 7.33325ZM5.33301 11.3333C5.86344 11.3333 6.37215 11.544 6.74722 11.919C7.12229 12.2941 7.33301 12.8028 7.33301 13.3333V18.6666C7.33301 19.197 7.12229 19.7057 6.74722 20.0808C6.37215 20.4559 5.86344 20.6666 5.33301 20.6666C4.80257 20.6666 4.29387 20.4559 3.91879 20.0808C3.54372 19.7057 3.33301 19.197 3.33301 18.6666V13.3333C3.33301 12.8028 3.54372 12.2941 3.91879 11.919C4.29387 11.544 4.80257 11.3333 5.33301 11.3333ZM26.6663 11.3333C27.1635 11.3333 27.6429 11.5185 28.0109 11.8527C28.3789 12.187 28.6093 12.6464 28.657 13.1413L28.6663 13.3333V18.6666C28.6661 19.1802 28.4682 19.674 28.1138 20.0458C27.7594 20.4175 27.2755 20.6386 26.7625 20.6633C26.2494 20.688 25.7466 20.5143 25.3581 20.1784C24.9696 19.8424 24.7252 19.3698 24.6757 18.8586L24.6663 18.6666V13.3333C24.6663 12.8028 24.8771 12.2941 25.2521 11.919C25.6272 11.544 26.1359 11.3333 26.6663 11.3333Z" fill="#D46C03"/>
</svg>
